<svg xmlns="http://www.w3.org/2000/svg" viewBox="0 0 971.21 664.76">
<defs>
<style>
.cls-1{fill:#fff;}
.cls-2{fill:#2e2c27;}
.cls-3{fill:#7999cf;}
.cls-4{fill:#ed2a47;}
.cls-5{fill:#cc2547;}
.cls-6{fill:#af2346;}
.cls-7{fill:#8d1c3d;}
.cls-8{fill:#6d1633;}
.cls-9{fill:#647fa8;}
.cls-10{fill:#556e8b;}
.cls-11{fill:#445970;}
.cls-12{fill:#304251;}
.cls-13{fill:#23303a;}
.cls-14{fill:#11161a;}
.cls-15{fill:#ed2d47;}
.cls-16{fill:#617ca3;}
.cls-17{fill:#4f6584;}
.cls-18{fill:#3b4b60;}
.cls-19{fill:#2b3a47;}
.cls-20{fill:#1f2b33;}
.cls-21{fill:#12181c;}
.cls-22{fill:#d12946;}
.cls-23{fill:#b72647;}
.cls-24{fill:#9e2244;}
.cls-25{fill:#7d1d3a;}
.cls-26{fill:#59162c;}
.cls-27{fill:#3e1321;}
.cls-28{fill:#ed2f48;}
.cls-29{fill:#260e16;}
.cls-30{fill:#648dc0;}
.cls-31{fill:#5782b7;}
.cls-32{fill:#4c769d;}
.cls-33{fill:#426681;}
.cls-34{fill:#345163;}
.cls-35{fill:#263c49;}
.cls-36{fill:#1a2830;}
.cls-37{fill:#6983af;}
.cls-38{fill:#566d8d;}
.cls-39{fill:#40546b;}
.cls-40{fill:#2b3a48;}
.cls-41{fill:#ce2649;}
.cls-42{fill:#931d3f;}
.cls-43{fill:#2f2d28;}
.cls-44{fill:#ed2a46;}
.cls-45{fill:#d12645;}
.cls-46{fill:#b22342;}
.cls-47{fill:#881c37;}
.cls-48{fill:#597092;}
.cls-49{fill:#49607b;}
.cls-50{fill:#37495b;}
.cls-51{fill:#222e38;}
</style>
</defs>

<g id="Layer_2" data-name="Layer 2">
<g id="Layer_10" data-name="Layer 10">
<path class="cls-1" d="M82.33,234.77,117,220.91l140-80.06,62.95-35.45L436.62,49.78l-7.34,79.46s-.61,15.89-7.33,23.83-17.72,19-17.72,19l-39.94,30.79s-15.93,15-25.46,15.05c-6.48,0-9.78-4.28-13.45-16.51L320,183.53s-5.87-2.38-11.16,16c-4.22,14.68-5.5,26.28-9.17,37.28s-1.23,13-28.12,38.71S120.64,389,117,391.43s-11.61,1.83-12.22,0-26.89-67.84-36.06-92.29S27.13,182.41,25.3,177.52s-6.72-19-7.95-20.78,9.88,30.53,7.34,29.33c-1.57-.73-6.73-14-15.28-41.56S-.48,101.13.13,99.91s5,2.43,9.28,11S33.89,162.1,54,198.3C60,209,65.58,220.46,70.86,230.54A9.35,9.35,0,0,0,82.33,234.77Z"/>
<path class="cls-2" d="M436.62,49.78s-121.2-5.91-138.81-6.71-78.83-4.8-94-4.8-26.42.8-32.82,16S160.13,75.89,158.53,81.5s-.8,22.41,8,28.81,17.61,2.4,21.62-7.2c3.06-7.37,5.5-21.58,7-27.8a3.69,3.69,0,0,1,3.88-2.78l79.29,5.74a9.32,9.32,0,0,1,4.31,1.47l37.22,25.66Z"/>
<path class="cls-3" d="M263.05,166s-58.15,36.64-65.74,41.14c-13.57,8.06-25,31.85-24.18,50.51a454.69,454.69,0,0,0,5.09,46.62c1.28,8.06,10.18,24.18,26.3,10.18s48.35-42,56.41-50.05,18.24-19.51,19.93-37.75a267.71,267.71,0,0,0,0-45.8C280,172.38,274.93,162.63,263.05,166Z"/>
<path class="cls-4" d="M406,86.71S377,100.53,367.93,106c-7.19,4.38-14.89,15.29-17.73,33.79-1.5,9.79-2.07,36.08-1.47,40.61,1,7.67,8.5,9.74,13.46,6.51,5.79-3.76,20.89-12.87,28.52-18.38s12-8.35,16.5-19.28c2.84-6.84,7.06-20.3,8.1-40.1C416,96.88,415.68,82.43,406,86.71Z"/>
<path class="cls-5" d="M396,76.71l-.64.31a95.14,95.14,0,0,1,0,12.17c-1,19.8-5.26,33.26-8.1,40.1-4.55,10.93-8.86,13.76-16.5,19.28S348,163.19,342.19,167a9,9,0,0,1-3.61,1.36,21,21,0,0,0,.15,2.13c1,7.67,8.5,9.74,13.46,6.51,5.79-3.76,20.89-12.87,28.52-18.38s12-8.35,16.5-19.28c2.84-6.84,7.06-20.3,8.1-40.1C406,86.88,405.68,72.43,396,76.71Z"/>
<path class="cls-6" d="M338.66,152.87c-2.62,1.63-4.9,3.06-6.47,4.08a9,9,0,0,1-3.61,1.36,21,21,0,0,0,.15,2.13c.78,5.95,5.47,8.52,9.85,7.87C338.44,165,338.47,159.17,338.66,152.87Z"/>
<path class="cls-6" d="M370.71,148.57c7.64-5.52,12-8.35,16.5-19.28,2.84-6.84,7.06-20.3,8.1-40.1a95.14,95.14,0,0,0,0-12.17c-1.47.7-5.37,2.57-10.2,4.93-1.28,18.29-5.23,30.82-7.93,37.34-4.55,10.93-8.86,13.76-16.5,19.28-5.55,4-15.06,9.92-22,14.3-.19,6.3-.22,12.14-.08,15.44a9,9,0,0,0,3.61-1.36C348,163.19,363.08,154.08,370.71,148.57Z"/>
<path class="cls-7" d="M328.66,142.87c-2.62,1.63-4.9,3.06-6.47,4.08a9,9,0,0,1-3.61,1.36,21,21,0,0,0,.15,2.13c.78,5.95,5.47,8.52,9.85,7.87C328.44,155,328.47,149.17,328.66,142.87Z"/>
<path class="cls-7" d="M338.66,152.87c.16-5.76.46-11.9.86-16.84-3.73,2.38-7.57,4.78-10.86,6.84-.19,6.3-.22,12.14-.08,15.44a9,9,0,0,0,3.61-1.36C333.76,155.93,336,154.5,338.66,152.87Z"/>
<path class="cls-7" d="M367.21,109.29c-4.55,10.93-8.86,13.76-16.5,19.28-2.94,2.12-7,4.78-11.19,7.46-.4,4.94-.7,11.08-.86,16.84,7-4.38,16.5-10.29,22-14.3,7.64-5.52,12-8.35,16.5-19.28,2.7-6.52,6.65-19.05,7.93-37.34-3.67,1.8-7.87,3.87-11.95,5.93A104.31,104.31,0,0,1,367.21,109.29Z"/>
<path class="cls-8" d="M367.21,109.29a104.31,104.31,0,0,0,6-21.41C367,91,361.18,94.06,357.93,96c-7.19,4.38-14.89,15.29-17.73,33.79-.25,1.65-.48,3.79-.68,6.2,4.2-2.68,8.25-5.34,11.19-7.46C358.35,123.05,362.66,120.22,367.21,109.29Z"/>
<path class="cls-9" d="M256.11,165.37a23.51,23.51,0,0,1,.62,3.46,233.26,233.26,0,0,1,0,39.8c-1.48,15.84-10.32,25.79-17.32,32.79s-35,31.33-49,43.49c-4.67,4.06-8.64,5.19-11.91,4.66,2.62,7.1,10,15.68,21.91,5.34,14-12.16,42-36.48,49-43.49s15.84-16.95,17.32-32.79a233.26,233.26,0,0,0,0-39.8C266.12,172.74,263,165.91,256.11,165.37Z"/>
<path class="cls-10" d="M247.36,168.38l3.89-2.45a13.91,13.91,0,0,1,4.86-.56c-1.29-5-4.41-9.56-10-10a23.51,23.51,0,0,1,.62,3.46C247,161.18,247.2,164.48,247.36,168.38Z"/>
<path class="cls-10" d="M176.32,277.83a11.92,11.92,0,0,1-7.83,1.74c1.6,4.31,4.95,9.17,10,10a19.25,19.25,0,0,1-.94-3.51C177.24,284.07,176.8,281.23,176.32,277.83Z"/>
<path class="cls-10" d="M190.4,284.91c14-12.16,42-36.48,49-43.49s15.84-16.95,17.32-32.79a233.26,233.26,0,0,0,0-39.8,23.51,23.51,0,0,0-.62-3.46,13.91,13.91,0,0,0-4.86.56l-3.89,2.45a234.36,234.36,0,0,1-.63,30.25c-1.48,15.84-10.32,25.79-17.32,32.79s-35,31.33-49,43.49a24.72,24.72,0,0,1-4.08,2.92c.48,3.4.92,6.24,1.23,8.23a19.25,19.25,0,0,0,.94,3.51C181.76,290.1,185.73,289,190.4,284.91Z"/>
<path class="cls-11" d="M166.32,267.83a11.92,11.92,0,0,1-7.83,1.74c1.6,4.31,4.95,9.17,10,10a19.25,19.25,0,0,1-.94-3.51C167.24,274.07,166.8,271.23,166.32,267.83Z"/>
<path class="cls-11" d="M176.32,277.83c-.64-4.61-1.37-10.28-2-16.34l-3.94,3.42a24.72,24.72,0,0,1-4.08,2.92c.48,3.4.92,6.24,1.23,8.23a19.25,19.25,0,0,0,.94,3.51A11.92,11.92,0,0,0,176.32,277.83Z"/>
<path class="cls-11" d="M241.25,155.93l-3.89,2.45c.2,4.7.29,10.28.15,16.2l9.85-6.2c-.16-3.9-.4-7.2-.63-9.55a23.51,23.51,0,0,0-.62-3.46A13.91,13.91,0,0,0,241.25,155.93Z"/>
<path class="cls-11" d="M236.73,188.63c-1.48,15.84-10.32,25.79-17.32,32.79-6.4,6.4-30.31,27.24-45.07,40.07.61,6.06,1.34,11.73,2,16.34a24.72,24.72,0,0,0,4.08-2.92c14-12.16,42-36.48,49-43.49s15.84-16.95,17.32-32.79a234.36,234.36,0,0,0,.63-30.25l-9.85,6.2C237.41,179.15,237.17,183.92,236.73,188.63Z"/>
<path class="cls-12" d="M156.32,257.83a11.92,11.92,0,0,1-7.83,1.74c1.6,4.31,4.95,9.17,10,10a19.25,19.25,0,0,1-.94-3.51C157.24,264.07,156.8,261.23,156.32,257.83Z"/>
<path class="cls-12" d="M166.32,267.83c-.64-4.61-1.37-10.28-2-16.34l-3.94,3.42a24.72,24.72,0,0,1-4.08,2.92c.48,3.4.92,6.24,1.23,8.23a19.25,19.25,0,0,0,.94,3.51A11.92,11.92,0,0,0,166.32,267.83Z"/>
<path class="cls-12" d="M226.36,181.59l11.15-7c.14-5.92.05-11.5-.15-16.2l-9.85,6.2c-.1,4.57-.34,9.34-.78,14C226.63,179.64,226.51,180.62,226.36,181.59Z"/>
<path class="cls-12" d="M173.09,243.87l-8.75,7.62c.61,6.06,1.34,11.73,2,16.34a24.72,24.72,0,0,0,4.08-2.92l3.94-3.42c-.53-5.16-1-10.6-1.21-15.93C173.1,245,173.09,244.44,173.09,243.87Z"/>
<path class="cls-12" d="M236.73,188.63c.44-4.71.68-9.48.78-14l-11.15,7c-2.23,14.14-10.4,23.28-17,29.83-5.24,5.24-22.23,20.17-36.32,32.45,0,.57,0,1.13,0,1.69.24,5.33.68,10.77,1.21,15.93,14.76-12.83,38.67-33.67,45.07-40.07C226.41,214.42,235.25,204.47,236.73,188.63Z"/>
<path class="cls-13" d="M146.32,247.83a11.92,11.92,0,0,1-7.83,1.74c1.6,4.31,4.95,9.17,10,10a19.25,19.25,0,0,1-.94-3.51C147.24,254.07,146.8,251.23,146.32,247.83Z"/>
<path class="cls-13" d="M156.32,257.83c-.64-4.61-1.37-10.28-2-16.34l-3.94,3.42a24.72,24.72,0,0,1-4.08,2.92c.48,3.4.92,6.24,1.23,8.23a19.25,19.25,0,0,0,.94,3.51A11.92,11.92,0,0,0,156.32,257.83Z"/>
<path class="cls-13" d="M163.09,233.87l-8.75,7.62c.61,6.06,1.34,11.73,2,16.34a24.72,24.72,0,0,0,4.08-2.92l3.94-3.42c-.53-5.16-1-10.6-1.21-15.93C163.1,235,163.09,234.44,163.09,233.87Z"/>
<path class="cls-13" d="M205.75,194.5c6-3.76,13.48-8.43,20.61-12.91.15-1,.27-2,.37-3,.44-4.71.68-9.48.78-14l-11.15,7A47.44,47.44,0,0,1,205.75,194.5Z"/>
<path class="cls-13" d="M179.08,219.86c-5.24,4.62-10.81,9.49-16,14,0,.57,0,1.13,0,1.69.24,5.33.68,10.77,1.21,15.93l8.75-7.62C173.09,236.08,175.39,227.45,179.08,219.86Z"/>
<path class="cls-13" d="M199.41,201.42c-3.31,3.32-11.32,10.5-20.33,18.44-3.69,7.59-6,16.22-6,24,14.09-12.28,31.08-27.21,36.32-32.45,6.55-6.55,14.72-15.69,17-29.83-7.13,4.48-14.6,9.15-20.61,12.91A92.05,92.05,0,0,1,199.41,201.42Z"/>
<path class="cls-14" d="M194.13,201.68c1.64-1,6-3.68,11.62-7.18a47.44,47.44,0,0,0,10.61-22.91c-13.8,8.66-28.83,18.07-32.23,20.09-11.38,6.76-21,26.26-21,42.19,5.18-4.52,10.75-9.39,16-14C182.94,211.92,188.31,205.13,194.13,201.68Z"/>
<path class="cls-14" d="M205.75,194.5c-5.62,3.5-10,6.2-11.62,7.18-5.82,3.45-11.19,10.24-15,18.18,9-7.94,17-15.12,20.33-18.44A92.05,92.05,0,0,0,205.75,194.5Z"/>
<path class="cls-1" d="M319.88,105.4l-62.95,35.45L117,220.91,82.33,234.77a9.35,9.35,0,0,1-11.47-4.23C65.58,220.46,60,209,54,198.3c-20.13-36.2-40.33-78.84-44.61-87.4S.74,98.68.13,99.91s.72,17.1,9.28,44.6,13.71,40.83,15.28,41.56c2.54,1.2-8.56-31.17-7.34-29.33s6.11,15.89,8,20.78,34.22,97.17,43.39,121.62,35.45,90.45,36.06,92.29,8.56,2.44,12.22,0S244.7,301.18,271.59,275.51s24.46-27.71,28.12-38.71,5-22.6,9.17-37.28c5.29-18.37,11.16-16,11.16-16l5.34,17.82c3.67,12.23,7,16.54,13.45,16.51,9.53-.06,25.46-15.05,25.46-15.05L404.23,172s11-11,17.72-19,7.33-23.83,7.33-23.83l7.34-79.46Zm-39,121.27c-1.69,18.24-11.87,29.69-19.93,37.75s-40.29,36.05-56.41,50.05-25-2.12-26.3-10.18a454.69,454.69,0,0,1-5.09-46.62c-.84-18.66,10.61-42.45,24.18-50.51,7.59-4.5,65.74-41.14,65.74-41.14,11.88-3.39,17,6.36,17.81,14.85A267.71,267.71,0,0,1,280.86,226.67ZM415.31,109.19c-1,19.8-5.26,33.26-8.1,40.1-4.55,10.93-8.86,13.76-16.5,19.28S368,183.19,362.19,187c-5,3.23-12.45,1.16-13.46-6.51-.6-4.53,0-30.82,1.47-40.61,2.84-18.5,10.54-29.41,17.73-33.79C377,100.53,406,86.71,406,86.71,415.68,82.43,416,96.88,415.31,109.19Z"/>
<path class="cls-1" d="M762.44,415.13h0a1,1,0,0,0,.37-.58l5.46-26.79,0-.17.77-6a7.7,7.7,0,0,0,.06-1.36L768,353.38a2.34,2.34,0,0,0-2.23-2.24h0a2.33,2.33,0,0,0-2.19,1.26l-42.56,89.26-6.2,89.14,43.41-124.89c.85-2.55,2.86-2.93,2.82-.25l-.16,8.68A1,1,0,0,0,762.44,415.13Z"/>
<path class="cls-2" d="M437.54,382.78l-.31-.69a3.09,3.09,0,0,1-.28-1.16l-.89-20.23a3.13,3.13,0,0,0-.91-2.08h0a3.14,3.14,0,0,0-4.25-.17l-54.44,46.32L281,394.58l148.31-70.17c34.13-7.61,17.41,52.86,17.41,52.86a20.29,20.29,0,0,1-3.73,6.22,3.18,3.18,0,0,1-1.69,1l-.2,0A3.13,3.13,0,0,1,437.54,382.78Z"/>
<path class="cls-3" d="M447,486.64,343.2,473.18a17.08,17.08,0,0,1-14.84-15.62l-3.48-45.07-2.06-.21a7.38,7.38,0,0,0-8.12,7.9l3.66,47.38a17.08,17.08,0,0,0,14.84,15.62L437,496.64a10.39,10.39,0,0,0,11.71-9.93A11,11,0,0,1,447,486.64Z"/>
<path class="cls-15" d="M669.8,516.34,552.74,501.29a17.86,17.86,0,0,1-15.58-17.58l-.33-42.77a14.78,14.78,0,0,1,.55-4,14.46,14.46,0,0,0-10.55,14l.33,42.77a17.86,17.86,0,0,0,15.58,17.58L659.8,526.34a14.65,14.65,0,0,0,16-10.46A14.59,14.59,0,0,1,669.8,516.34Z"/>
<path class="cls-16" d="M334.88,402.49l-2.06-.21a7.38,7.38,0,0,0-8.12,7.9l.18,2.31,10.86,1.14Z"/>
<path class="cls-16" d="M457,476.64l-8.52-1.11.24,10.57c0,.2,0,.4,0,.61a10.38,10.38,0,0,0,10-10A11,11,0,0,1,457,476.64Z"/>
<path class="cls-16" d="M448.45,475.53,353.2,463.18a17.08,17.08,0,0,1-14.84-15.62l-2.62-33.93-10.86-1.14,3.48,45.07a17.08,17.08,0,0,0,14.84,15.62L447,486.64a11,11,0,0,0,1.71.07c0-.21,0-.41,0-.61Z"/>
<path class="cls-17" d="M467,466.64l-8.52-1.11.24,10.57c0,.2,0,.4,0,.61a10.38,10.38,0,0,0,10-10A11,11,0,0,1,467,466.64Z"/>
<polygon class="cls-17" points="346.6 414.77 345.74 403.63 334.88 402.49 335.74 413.63 346.6 414.77"/>
<path class="cls-17" d="M458.45,465.53l-10.27-1.33.27,11.33,8.52,1.11a11,11,0,0,0,1.71.07c0-.21,0-.41,0-.61Z"/>
<path class="cls-17" d="M348.36,437.56l-1.76-22.79-10.86-1.14,2.62,33.93a17.08,17.08,0,0,0,14.84,15.62l95.25,12.35-.27-11.33-85-11A17.08,17.08,0,0,1,348.36,437.56Z"/>
<path class="cls-18" d="M477,456.64l-8.52-1.11.24,10.57c0,.2,0,.4,0,.61a10.38,10.38,0,0,0,10-10A11,11,0,0,1,477,456.64Z"/>
<path class="cls-18" d="M468.45,455.53l-10.27-1.33.27,11.33,8.52,1.11a11,11,0,0,0,1.71.07c0-.21,0-.41,0-.61Z"/>
<polygon class="cls-18" points="448.18 464.2 458.45 465.54 458.18 454.2 447.92 452.87 448.18 464.2"/>
<polygon class="cls-18" points="356.6 404.77 345.74 403.63 346.6 414.77 357.46 415.9 356.6 404.77"/>
<path class="cls-18" d="M373.2,443.18a17.08,17.08,0,0,1-14.84-15.62l-.9-11.65-10.86-1.14,1.76,22.79a17.08,17.08,0,0,0,14.84,15.62l85,11-.26-11.33Z"/>
<path class="cls-19" d="M487,446.64l-8.52-1.11.24,10.57c0,.2,0,.4,0,.61a10.38,10.38,0,0,0,10-10A11,11,0,0,1,487,446.64Z"/>
<path class="cls-19" d="M478.45,445.53l-10.27-1.33.27,11.33,8.52,1.11a11,11,0,0,0,1.71.07c0-.21,0-.41,0-.61Z"/>
<polygon class="cls-19" points="458.18 454.2 468.45 455.54 468.18 444.2 457.92 442.87 458.18 454.2"/>
<path class="cls-19" d="M447.61,441.54c0,.27.05.54.06.82l.25,10.51,10.26,1.33-.26-11.33Z"/>
<polygon class="cls-19" points="368.32 417.04 367.46 405.9 356.6 404.77 357.46 415.9 368.32 417.04"/>
<path class="cls-19" d="M368.36,417.56l0-.52-10.86-1.13.9,11.65a17.08,17.08,0,0,0,14.84,15.62l74.72,9.69-.25-10.51c0-.28,0-.55-.06-.82l-64.41-8.36A17.08,17.08,0,0,1,368.36,417.56Z"/>
<path class="cls-20" d="M497,436.64l-8.52-1.11.24,10.57c0,.2,0,.4,0,.61a10.38,10.38,0,0,0,10-10A11,11,0,0,1,497,436.64Z"/>
<path class="cls-20" d="M488.45,435.53l-10.27-1.33.27,11.33,8.52,1.11a11,11,0,0,0,1.71.07c0-.21,0-.41,0-.61Z"/>
<polygon class="cls-20" points="468.18 444.2 478.45 445.54 478.18 434.2 467.92 432.87 468.18 444.2"/>
<path class="cls-20" d="M457.61,431.54c0,.27.05.54.06.82l.25,10.51,10.26,1.33-.26-11.33Z"/>
<path class="cls-20" d="M378.36,407.56l0-.52-10.86-1.13.86,11.13,15.35,1.61A17.06,17.06,0,0,1,378.36,407.56Z"/>
<path class="cls-20" d="M447.61,441.54l10.31,1.33-.25-10.51c0-.28,0-.55-.06-.82l-15.17-2A19.31,19.31,0,0,1,447.61,441.54Z"/>
<path class="cls-20" d="M442.44,429.57l-49.24-6.39a17,17,0,0,1-9.53-4.53L368.32,417l0,.52a17.08,17.08,0,0,0,14.84,15.62l64.41,8.36A19.31,19.31,0,0,0,442.44,429.57Z"/>
<path class="cls-21" d="M440.31,413.53l-62-6.49,0,.52a17.06,17.06,0,0,0,5.31,11.09l46.64,4.88a19.33,19.33,0,0,1,12.13,6l15.17,2A19.37,19.37,0,0,0,440.31,413.53Z"/>
<path class="cls-21" d="M442.44,429.57a19.33,19.33,0,0,0-12.13-6l-46.64-4.88a17,17,0,0,0,9.53,4.53Z"/>
<path class="cls-22" d="M679.8,506.34l-3.19-.41-.29,6.52a14.82,14.82,0,0,1-.57,3.43,14.69,14.69,0,0,0,10-10A14.59,14.59,0,0,1,679.8,506.34Z"/>
<path class="cls-22" d="M542.85,436.45l4,.44,0-5.95a14.78,14.78,0,0,1,.55-4,14.49,14.49,0,0,0-10,10A14.64,14.64,0,0,1,542.85,436.45Z"/>
<path class="cls-22" d="M676.61,505.93,562.74,491.29a17.86,17.86,0,0,1-15.58-17.58l-.28-36.82-4-.44a14.64,14.64,0,0,0-5.47.47,14.78,14.78,0,0,0-.55,4l.33,42.77a17.86,17.86,0,0,0,15.58,17.58L669.8,516.34a14.59,14.59,0,0,0,6-.46,14.82,14.82,0,0,0,.57-3.43Z"/>
<path class="cls-23" d="M689.8,496.34l-3.19-.41-.29,6.52a14.82,14.82,0,0,1-.57,3.43,14.69,14.69,0,0,0,10-10A14.59,14.59,0,0,1,689.8,496.34Z"/>
<path class="cls-23" d="M546.88,436.89,557,438l-.08-11.09-4-.44a14.64,14.64,0,0,0-5.47.47,14.78,14.78,0,0,0-.55,4Z"/>
<path class="cls-23" d="M686.61,495.93l-9.5-1.22-.5,11.22,3.19.41a14.59,14.59,0,0,0,6-.46,14.82,14.82,0,0,0,.57-3.43Z"/>
<path class="cls-23" d="M557.16,463.71,557,438l-10.08-1.09.28,36.82a17.86,17.86,0,0,0,15.58,17.58l113.87,14.64.5-11.22L572.74,481.29A17.86,17.86,0,0,1,557.16,463.71Z"/>
<path class="cls-24" d="M699.8,486.34l-3.19-.41-.29,6.52a14.82,14.82,0,0,1-.57,3.43,14.69,14.69,0,0,0,10-10A14.59,14.59,0,0,1,699.8,486.34Z"/>
<path class="cls-24" d="M696.61,485.93l-9.5-1.22-.5,11.22,3.19.41a14.59,14.59,0,0,0,6-.46,14.82,14.82,0,0,0,.57-3.43Z"/>
<polygon class="cls-24" points="566.96 427.98 556.88 426.89 556.96 437.98 567.05 439.08 566.96 427.98"/>
<polygon class="cls-24" points="677.11 494.71 686.61 495.93 687.11 484.71 677.6 483.49 677.11 494.71"/>
<path class="cls-24" d="M582.74,471.29a17.86,17.86,0,0,1-15.58-17.58l-.11-14.63L557,438l.2,25.73a17.86,17.86,0,0,0,15.58,17.58l104.37,13.42.49-11.22Z"/>
<path class="cls-25" d="M709.8,476.34l-3.19-.41-.29,6.52a14.82,14.82,0,0,1-.57,3.43,14.69,14.69,0,0,0,10-10A14.59,14.59,0,0,1,709.8,476.34Z"/>
<path class="cls-25" d="M706.61,475.93l-9.5-1.22-.5,11.22,3.19.41a14.59,14.59,0,0,0,6-.46,14.82,14.82,0,0,0,.57-3.43Z"/>
<polygon class="cls-25" points="687.11 484.71 696.61 485.93 697.11 474.71 687.6 473.49 687.11 484.71"/>
<polygon class="cls-25" points="577.13 440.17 577.05 429.08 566.96 427.98 567.05 439.08 577.13 440.17"/>
<polygon class="cls-25" points="678.1 472.27 677.6 483.49 687.11 484.71 687.6 473.49 678.1 472.27"/>
<path class="cls-25" d="M577.16,443.71l0-3.54-10.08-1.09.11,14.63a17.86,17.86,0,0,0,15.58,17.58l94.86,12.2.5-11.22-85.36-11A17.86,17.86,0,0,1,577.16,443.71Z"/>
<path class="cls-26" d="M716.61,465.93l-9.5-1.22-.5,11.22,3.19.41a14.59,14.59,0,0,0,6-.46,14.82,14.82,0,0,0,.57-3.43Z"/>
<polygon class="cls-26" points="697.11 474.71 706.61 475.93 707.11 464.71 697.6 463.49 697.11 474.71"/>
<polygon class="cls-26" points="688.1 462.27 687.6 473.49 697.11 474.71 697.6 463.49 688.1 462.27"/>
<path class="cls-26" d="M678.3,467.86l-.2,4.41,9.5,1.22.5-11.22-10.92-1.41A17.58,17.58,0,0,1,678.3,467.86Z"/>
<path class="cls-26" d="M587.16,433.71l0-3.54-10.08-1.09.08,11.09L589,441.46A17.75,17.75,0,0,1,587.16,433.71Z"/>
<path class="cls-26" d="M677.18,460.86l-74.44-9.57A17.86,17.86,0,0,1,589,441.46l-11.86-1.29,0,3.54a17.86,17.86,0,0,0,15.58,17.58l85.36,11,.2-4.41A17.58,17.58,0,0,0,677.18,460.86Z"/>
<path class="cls-27" d="M672.47,439.42l-85.34-9.25,0,3.54a17.75,17.75,0,0,0,1.83,7.75l73.48,8a17.76,17.76,0,0,1,14.71,11.44l10.92,1.41.2-4.41A17.77,17.77,0,0,0,672.47,439.42Z"/>
<path class="cls-27" d="M602.74,451.29l74.44,9.57a17.76,17.76,0,0,0-14.71-11.44l-73.48-8A17.86,17.86,0,0,0,602.74,451.29Z"/>
<path class="cls-1" d="M281,394.58l7,81.34a6.17,6.17,0,0,0,4.31,5.36l58.24,18.1a6.48,6.48,0,0,0,1,.22l95.17,13.47a6.17,6.17,0,0,0,3.15-.38l1.4-.56a30.86,30.86,0,0,0,12.32-9l1.43-1.73a6,6,0,0,0,1.08-2l7-21a14.77,14.77,0,0,1,7-8.32l3.62-2a6.17,6.17,0,0,1,7.25,1l6.28,6.14a15.6,15.6,0,0,1,3.51,5.17l9,21.62,4.19,8.85a22.83,22.83,0,0,0,4.52,6.42l1.25,1.25a17.87,17.87,0,0,0,4.86,3.46l4,1.94a21,21,0,0,0,6.67,2l96.52,11.93a6.18,6.18,0,0,0,1,0l76.4-2.5a6.15,6.15,0,0,0,5-2.9,6.09,6.09,0,0,0,.93-2.84l6-88ZM437,496.64,333.2,483.18a17.08,17.08,0,0,1-14.84-15.62l-3.66-47.38a7.38,7.38,0,0,1,8.12-7.9l107.49,11.25a19.39,19.39,0,0,1,17.36,18.83l1,43.74A10.38,10.38,0,0,1,437,496.64Zm239.35,15.81a14.66,14.66,0,0,1-16.52,13.89L542.74,511.29a17.86,17.86,0,0,1-15.58-17.58l-.33-42.77a14.47,14.47,0,0,1,16-14.49l119.62,13a17.77,17.77,0,0,1,15.83,18.44Z"/>
<path class="cls-3" d="M811.49,303.65A9.45,9.45,0,0,1,801.34,295L790.28,151.45a7.08,7.08,0,0,1,2.89-6.25l-6.89.53a7.07,7.07,0,0,0-6.5,7.59l11.06,143.51a9.44,9.44,0,0,0,10.14,8.7l77.27-6a9.11,9.11,0,0,0,4.2-1.39Z"/>
<path class="cls-28" d="M902.05,571.69l-73.8,5.69a6.5,6.5,0,0,1-7-6L810.51,432a8.07,8.07,0,0,1,3.54-7.32l-6.6.51a8.07,8.07,0,0,0-7.44,8.68l10.74,139.44a6.51,6.51,0,0,0,7,6l81.2-6.25A5.4,5.4,0,0,0,902.05,571.69Z"/>
<path class="cls-22" d="M902.05,571.69l7.39-.57a5.45,5.45,0,0,0,3.12-1.3l-9.51.73A5.42,5.42,0,0,1,902.05,571.69Z"/>
<path class="cls-22" d="M824.55,422.76l-6.6.51a8,8,0,0,0-3.9,1.37l9.14-.71A8.48,8.48,0,0,1,824.55,422.76Z"/>
<path class="cls-22" d="M810.51,432l10.75,139.43a6.5,6.5,0,0,0,7,6l73.8-5.69a5.42,5.42,0,0,0,1-1.14l-64.3,5a6.52,6.52,0,0,1-7-6L821,430.08a8,8,0,0,1,2.17-6.15l-9.14.71A8.07,8.07,0,0,0,810.51,432Z"/>
<path class="cls-23" d="M835.06,420.89l-6.6.51a8.08,8.08,0,0,0-3.91,1.36l9.14-.7A8.07,8.07,0,0,1,835.06,420.89Z"/>
<path class="cls-23" d="M832.8,423.19a8.85,8.85,0,0,1,.89-1.13l-9.14.7a8.48,8.48,0,0,0-1.36,1.17Z"/>
<path class="cls-23" d="M913.56,568.67l-9.93.77a5.86,5.86,0,0,1-.58,1.11l9.51-.73A5.24,5.24,0,0,0,913.56,568.67Z"/>
<path class="cls-23" d="M849.26,573.63a6.5,6.5,0,0,1-7-6L831.52,428.21a8.09,8.09,0,0,1,1.28-5l-9.61.74a8,8,0,0,0-2.17,6.15l10.74,139.44a6.52,6.52,0,0,0,7,6l64.3-5a5.86,5.86,0,0,0,.58-1.11Z"/>
<path class="cls-24" d="M845.56,419l-6.6.51a8.12,8.12,0,0,0-3.9,1.37l9.14-.71A8.48,8.48,0,0,1,845.56,419Z"/>
<path class="cls-24" d="M843.31,421.32a8.13,8.13,0,0,1,.89-1.14l-9.14.71a8.07,8.07,0,0,0-1.37,1.17Z"/>
<path class="cls-24" d="M843.31,421.32l-9.62.74a8.85,8.85,0,0,0-.89,1.13l9.9-.76A7.46,7.46,0,0,1,843.31,421.32Z"/>
<path class="cls-24" d="M903.63,569.44l9.93-.77a5,5,0,0,0,.57-1.1l-10.22.78A5.62,5.62,0,0,1,903.63,569.44Z"/>
<path class="cls-24" d="M842.27,567.64a6.5,6.5,0,0,0,7,6l54.37-4.19a5.62,5.62,0,0,0,.28-1.09l-44.15,3.41a6.52,6.52,0,0,1-7-6L842,426.33a8.12,8.12,0,0,1,.68-3.9l-9.9.76a8.09,8.09,0,0,0-1.28,5Z"/>
<path class="cls-25" d="M856.07,417.14l-6.6.51a8.08,8.08,0,0,0-3.91,1.36l9.14-.7A8.07,8.07,0,0,1,856.07,417.14Z"/>
<path class="cls-25" d="M853.81,419.44a8.85,8.85,0,0,1,.89-1.13l-9.14.7a8.48,8.48,0,0,0-1.36,1.17Z"/>
<path class="cls-25" d="M853.81,419.44l-9.61.74a8.13,8.13,0,0,0-.89,1.14l9.89-.76A8.1,8.1,0,0,1,853.81,419.44Z"/>
<path class="cls-25" d="M852.81,421.65a8.31,8.31,0,0,1,.39-1.09l-9.89.76a7.46,7.46,0,0,0-.61,1.11Z"/>
<path class="cls-25" d="M904,567.28a5.37,5.37,0,0,1-.05,1.07l10.22-.78a5.14,5.14,0,0,0,.28-1.09Z"/>
<path class="cls-25" d="M870.26,569.88a6.49,6.49,0,0,1-7-6L852.53,424.46a7.94,7.94,0,0,1,.28-2.81l-10.11.78a8.12,8.12,0,0,0-.68,3.9l10.75,139.44a6.52,6.52,0,0,0,7,6l44.15-3.41a5.37,5.37,0,0,0,.05-1.07Z"/>
<path class="cls-26" d="M866.57,415.27l-6.6.5a8.12,8.12,0,0,0-3.9,1.37l9.14-.7A7.58,7.58,0,0,1,866.57,415.27Z"/>
<path class="cls-26" d="M864.32,417.57a7.5,7.5,0,0,1,.89-1.13l-9.14.7a8.07,8.07,0,0,0-1.37,1.17Z"/>
<path class="cls-26" d="M864.32,417.57l-9.62.74a8.85,8.85,0,0,0-.89,1.13l9.89-.76A8.54,8.54,0,0,1,864.32,417.57Z"/>
<path class="cls-26" d="M863.32,419.78a7.92,7.92,0,0,1,.38-1.1l-9.89.76a8.1,8.1,0,0,0-.61,1.12Z"/>
<path class="cls-26" d="M863.32,419.78l-10.12.78a8.31,8.31,0,0,0-.39,1.09l10.28-.79A7.67,7.67,0,0,1,863.32,419.78Z"/>
<path class="cls-26" d="M904,567.13a.75.75,0,0,1,0,.15l10.45-.8a4.77,4.77,0,0,0,.05-1.07l-10.57.81Z"/>
<path class="cls-26" d="M863.28,563.89a6.49,6.49,0,0,0,7,6l33.7-2.6a.75.75,0,0,0,0-.15l-.07-.91L880.77,568a6.52,6.52,0,0,1-7-6L863,422.58a8.21,8.21,0,0,1,.06-1.72l-10.28.79a7.94,7.94,0,0,0-.28,2.81Z"/>
<path class="cls-27" d="M877.08,413.39l-6.6.51a8,8,0,0,0-3.91,1.37l9.14-.71A8.07,8.07,0,0,1,877.08,413.39Z"/>
<path class="cls-27" d="M874.82,415.69a8,8,0,0,1,.89-1.13l-9.14.71a7.58,7.58,0,0,0-1.36,1.17Z"/>
<path class="cls-27" d="M874.82,415.69l-9.61.75a7.5,7.5,0,0,0-.89,1.13l9.89-.76A8.1,8.1,0,0,1,874.82,415.69Z"/>
<path class="cls-27" d="M873.82,417.9a8.31,8.31,0,0,1,.39-1.09l-9.89.76a8.54,8.54,0,0,0-.62,1.11Z"/>
<path class="cls-27" d="M873.82,417.9l-10.12.78a7.92,7.92,0,0,0-.38,1.1l10.27-.8A7.67,7.67,0,0,1,873.82,417.9Z"/>
<path class="cls-27" d="M873.52,420.05a7.59,7.59,0,0,1,.07-1.07l-10.27.8a7.67,7.67,0,0,0-.23,1.08Z"/>
<path class="cls-27" d="M914.4,564.35l-10.59.82.08,1.05,10.57-.81s0-.1,0-.15Z"/>
<path class="cls-27" d="M891.27,566.13a6.49,6.49,0,0,1-7-6L873.54,420.71c0-.22,0-.44,0-.66l-10.43.81a8.21,8.21,0,0,0-.06,1.72L873.78,562a6.52,6.52,0,0,0,7,6l23.12-1.79-.08-1.05Z"/>
<path class="cls-29" d="M893.2,427.48l10.61,137.69,10.59-.82L903.7,425.61a8.91,8.91,0,0,0-9.58-8.21L873.59,419a7.59,7.59,0,0,0-.07,1.07l10.1-.77A8.92,8.92,0,0,1,893.2,427.48Z"/>
<path class="cls-29" d="M884.29,560.14a6.49,6.49,0,0,0,7,6l12.54-1L893.2,427.48a8.92,8.92,0,0,0-9.58-8.2l-10.1.77c0,.22,0,.44,0,.66Z"/>
<path class="cls-30" d="M803.67,143.32l-6.88.54a7,7,0,0,0-3.62,1.34l9.25-.71A7.29,7.29,0,0,1,803.67,143.32Z"/>
<path class="cls-30" d="M790.28,151.45,801.34,295a9.45,9.45,0,0,0,10.15,8.69l71-5.47A8.64,8.64,0,0,0,884,297l-62,4.78a9.44,9.44,0,0,1-10.14-8.7L800.79,149.57a7,7,0,0,1,1.63-5.08l-9.25.71A7.08,7.08,0,0,0,790.28,151.45Z"/>
<path class="cls-31" d="M814.18,141.45l-6.89.53a7.08,7.08,0,0,0-3.62,1.34l9.26-.71A7.26,7.26,0,0,1,814.18,141.45Z"/>
<path class="cls-31" d="M802.42,144.49l9.74-.75a7.26,7.26,0,0,1,.77-1.13l-9.26.71A7.29,7.29,0,0,0,802.42,144.49Z"/>
<path class="cls-31" d="M885,295.86l-52.45,4a9.45,9.45,0,0,1-10.15-8.69L811.29,147.7a7,7,0,0,1,.87-4l-9.74.75a7,7,0,0,0-1.63,5.08l11.06,143.51a9.44,9.44,0,0,0,10.14,8.7L884,297A9,9,0,0,0,885,295.86Z"/>
<path class="cls-32" d="M824.68,139.58l-6.88.53a7,7,0,0,0-3.62,1.34l9.25-.71A6.86,6.86,0,0,1,824.68,139.58Z"/>
<path class="cls-32" d="M812.93,142.61l9.73-.75a7.18,7.18,0,0,1,.77-1.12l-9.25.71A7.26,7.26,0,0,0,812.93,142.61Z"/>
<path class="cls-32" d="M822.66,141.86l-9.73.75a7.26,7.26,0,0,0-.77,1.13l10-.78A7.23,7.23,0,0,1,822.66,141.86Z"/>
<path class="cls-32" d="M822.35,291.21a9.45,9.45,0,0,0,10.15,8.69l52.45-4a8.21,8.21,0,0,0,.72-1.12L843,298a9.44,9.44,0,0,1-10.14-8.69L821.8,145.83a7,7,0,0,1,.37-2.87l-10,.78a7,7,0,0,0-.87,4Z"/>
<path class="cls-33" d="M835.19,137.7l-6.89.53a7.09,7.09,0,0,0-3.62,1.35l9.26-.72A6.91,6.91,0,0,1,835.19,137.7Z"/>
<path class="cls-33" d="M823.43,140.74l9.73-.75a7.32,7.32,0,0,1,.78-1.13l-9.26.72A6.86,6.86,0,0,0,823.43,140.74Z"/>
<path class="cls-33" d="M833.16,140l-9.73.75a7.18,7.18,0,0,0-.77,1.12l10-.77A7.23,7.23,0,0,1,833.16,140Z"/>
<path class="cls-33" d="M832.39,142.18a7.56,7.56,0,0,1,.28-1.09l-10,.77a7.23,7.23,0,0,0-.49,1.1Z"/>
<path class="cls-33" d="M853.51,296.15a9.44,9.44,0,0,1-10.15-8.69L832.3,144a6.92,6.92,0,0,1,.09-1.77l-10.22.78a7,7,0,0,0-.37,2.87l11.06,143.51A9.44,9.44,0,0,0,843,298l42.67-3.29a10,10,0,0,0,.5-1.1Z"/>
<path class="cls-34" d="M845.69,135.83l-6.88.53a7,7,0,0,0-3.62,1.34l9.25-.71A6.86,6.86,0,0,1,845.69,135.83Z"/>
<path class="cls-34" d="M833.94,138.86l9.73-.75a7.18,7.18,0,0,1,.77-1.12l-9.25.71A6.91,6.91,0,0,0,833.94,138.86Z"/>
<path class="cls-34" d="M843.67,138.11l-9.73.75a7.32,7.32,0,0,0-.78,1.13l10-.77A6.13,6.13,0,0,1,843.67,138.11Z"/>
<path class="cls-34" d="M842.9,140.3a5.71,5.71,0,0,1,.28-1.08l-10,.77a7.23,7.23,0,0,0-.49,1.1Z"/>
<path class="cls-34" d="M842.9,140.3l-10.23.79a7.56,7.56,0,0,0-.28,1.09l10.4-.8A6.38,6.38,0,0,1,842.9,140.3Z"/>
<path class="cls-34" d="M843.36,287.46a9.44,9.44,0,0,0,10.15,8.69l32.66-2.51a10.56,10.56,0,0,0,.34-1.09L864,294.28a9.44,9.44,0,0,1-10.14-8.69L842.8,142.08c0-.24,0-.47,0-.7l-10.4.8a6.92,6.92,0,0,0-.09,1.77Z"/>
<path class="cls-35" d="M856.2,134l-6.89.53a7.09,7.09,0,0,0-3.62,1.35l9.26-.72A6.91,6.91,0,0,1,856.2,134Z"/>
<path class="cls-35" d="M844.44,137l9.73-.75a7.32,7.32,0,0,1,.78-1.13l-9.26.72A6.86,6.86,0,0,0,844.44,137Z"/>
<path class="cls-35" d="M854.17,136.24l-9.73.75a7.18,7.18,0,0,0-.77,1.12l10-.77A7.23,7.23,0,0,1,854.17,136.24Z"/>
<path class="cls-35" d="M853.4,138.43a7.92,7.92,0,0,1,.28-1.09l-10,.77a6.13,6.13,0,0,0-.49,1.11Z"/>
<path class="cls-35" d="M853.4,138.43l-10.22.79a5.71,5.71,0,0,0-.28,1.08l10.39-.8A7.61,7.61,0,0,1,853.4,138.43Z"/>
<path class="cls-35" d="M853.34,140.56l0-.36c0-.23,0-.47,0-.7l-10.39.8a6.38,6.38,0,0,0-.11,1.08Z"/>
<path class="cls-35" d="M874.52,292.41a9.45,9.45,0,0,1-10.15-8.7l-11-143.15-10.55.82c0,.23,0,.46,0,.7l11.07,143.51A9.44,9.44,0,0,0,864,294.28l22.5-1.73a8.19,8.19,0,0,0,.2-1.08Z"/>
<path class="cls-36" d="M874.52,292.41l12.19-.94a9.1,9.1,0,0,0,0-1.81L875.67,145.93a7.07,7.07,0,0,0-7.59-6.5l-14.74,1.13,11,143.15A9.45,9.45,0,0,0,874.52,292.41Z"/>
<path class="cls-2" d="M944.87,105.72c.84,11-49.93,16.51-49.93,16.51l-2.41-38.35S944.48,100.67,944.87,105.72Z"/>
<path class="cls-2" d="M927.65,622.83s40-49,42.76-52.3,0-13.76-47.45-15.61Z"/>
<path class="cls-1" d="M892.45,83.86l-114,8.78c-17.57,1.36-21.73,6.21-21.56,8.46s12.24,201.08,12.72,207.39,23.32,23.38,29.91,28.16c8.18,5.94,26.64,10.26,27.89,26.48S810.11,387.05,804,391.41c-15.89,11.31-26.57,34.35-26.57,34.35s16,188.68,17,196.75,24.45,6.32,24.45,6.32l108.29-6.08ZM801,305.53a9.44,9.44,0,0,1-10.14-8.7L779.78,153.32a7.07,7.07,0,0,1,6.5-7.59l81.8-6.3a7.07,7.07,0,0,1,7.59,6.5l11.08,143.73a9.23,9.23,0,0,1-8.5,9.91Zm16.76,273.72a6.51,6.51,0,0,1-7-6L800,433.83a8.07,8.07,0,0,1,7.44-8.68l76.17-5.87a8.92,8.92,0,0,1,9.58,8.2L904,567.13a5.47,5.47,0,0,1-5,5.87Z"/>
<path class="cls-3" d="M495.82,280.82c-3.94-4.11-38.2-37.6-42.81-42.23-4.38-4.41,1.51-6.32,4.85-6.59-4.34-.21-7.68-.29-9.5-.23-3.19.1-9.95,2-5.35,6.61s38.87,38.12,42.82,42.23,11.06,9.65,18.6,10.31,20.3,1.94,23,2a10,10,0,0,0,3.05-.31c-5-.45-11.47-1.07-16-1.47C506.88,290.47,499.77,284.94,495.82,280.82Z"/>
<path class="cls-4" d="M610.55,376.16a.41.41,0,0,0,.05-.26c-1.59-.4-3.15-.83-4.47-1.18-4.85-1.27-15.22-3.51-20.72-6.14s-26.44-21.4-33.36-28.09c-4.27-4.15-4.1-5.82-2.48-6.51a34.19,34.19,0,0,0-6-.73c-3.7.09-8.41.33-1.49,7s27.87,25.45,33.36,28.09,15.86,4.87,20.71,6.15S609,378.15,610.55,376.16Z"/>
<path class="cls-37" d="M530.47,292.6c3.26.29,5.88.5,6.94.52a10.05,10.05,0,0,0,3.06-.31c-2.7-.24-5.82-.53-8.85-.82A3.24,3.24,0,0,1,530.47,292.6Z"/>
<path class="cls-37" d="M467.86,232.21c-4.34-.21-7.68-.29-9.5-.24l-.5,0c2.44.12,5.2.29,8.18.49A14.71,14.71,0,0,1,467.86,232.21Z"/>
<path class="cls-37" d="M524.43,291.34c-7.55-.66-14.66-6.19-18.61-10.31s-38.2-37.6-42.81-42.24c-3.65-3.67-.16-5.61,3-6.3-3-.2-5.74-.37-8.18-.49-3.34.27-9.23,2.18-4.85,6.59,4.61,4.63,38.87,38.12,42.81,42.23s11.06,9.65,18.61,10.31c4.57.4,11.05,1,16,1.47a3.24,3.24,0,0,0,1.15-.61Z"/>
<path class="cls-38" d="M477.85,232.42c-4.33-.21-7.67-.29-9.49-.24l-.5,0c2.44.12,5.2.28,8.18.48A16.94,16.94,0,0,1,477.85,232.42Z"/>
<path class="cls-38" d="M534.43,291.55a21.28,21.28,0,0,1-2.24-.35,1.89,1.89,0,0,1-.57.79c3,.29,6.15.58,8.85.82a3.33,3.33,0,0,0,1.15-.61Z"/>
<path class="cls-38" d="M469.18,232.71a19.53,19.53,0,0,1,4.36.83,11,11,0,0,1,2.5-.85c-3-.2-5.74-.36-8.18-.48a14.71,14.71,0,0,0-1.82.28C467.07,232.55,468.11,232.63,469.18,232.71Z"/>
<path class="cls-38" d="M473,239c-2.67-2.68-1.52-4.44.53-5.46a19.53,19.53,0,0,0-4.36-.83c-1.07-.08-2.11-.16-3.14-.22-3.19.69-6.68,2.63-3,6.3,4.61,4.64,38.87,38.13,42.81,42.24s11.06,9.65,18.61,10.31l7.19.65a1.89,1.89,0,0,0,.57-.79c-6.69-1.41-12.82-6.25-16.37-10C511.87,277.13,477.62,243.64,473,239Z"/>
<path class="cls-39" d="M487.85,232.63c-4.33-.21-7.68-.29-9.49-.24l-.51,0c2.45.12,5.21.28,8.19.48A16.57,16.57,0,0,1,487.85,232.63Z"/>
<path class="cls-39" d="M479.18,232.91a20.36,20.36,0,0,1,4.36.84,11,11,0,0,1,2.5-.85c-3-.2-5.74-.36-8.19-.48a16.94,16.94,0,0,0-1.81.27Z"/>
<path class="cls-39" d="M483.54,233.75a20.36,20.36,0,0,0-4.36-.84l-3.14-.22a11,11,0,0,0-2.5.85,31,31,0,0,1,8.21,4C480.91,235.77,482,234.54,483.54,233.75Z"/>
<path class="cls-39" d="M522.13,277.75c5.51,5.94,9.59,10.38,9.59,10.38a4,4,0,0,1,.47,3.07,21.28,21.28,0,0,0,2.24.35l7.19.65a1.89,1.89,0,0,0,.57-.79c-6.7-1.41-12.82-6.25-16.37-10C525.22,280.83,523.91,279.52,522.13,277.75Z"/>
<path class="cls-39" d="M531.72,288.13s-4.08-4.44-9.59-10.38c-10-9.92-35.22-34.61-39.12-38.54a6.26,6.26,0,0,1-1.26-1.68,31,31,0,0,0-8.21-4c-2.05,1-3.2,2.78-.53,5.46,4.61,4.64,38.86,38.13,42.81,42.24,3.55,3.71,9.68,8.55,16.37,10A4,4,0,0,0,531.72,288.13Z"/>
<path class="cls-40" d="M522.13,277.75c-9.7-10.48-23.86-25.68-28.06-29.73a89.89,89.89,0,0,0-12.32-10.49,6.26,6.26,0,0,0,1.26,1.68C486.91,243.14,512.15,267.83,522.13,277.75Z"/>
<path class="cls-41" d="M609.14,373.19a7.48,7.48,0,0,1,1.46,2.71c4.27,1.06,8.81,1.91,9.94.47a.35.35,0,0,0,.06-.26c-1.6-.4-3.15-.83-4.48-1.18C614.36,374.47,611.87,373.88,609.14,373.19Z"/>
<path class="cls-41" d="M559.57,334.19a34.19,34.19,0,0,0-6-.73,12,12,0,0,0-4,.52c2.57.47,5.65,1.14,9,1.94A1.45,1.45,0,0,1,559.57,334.19Z"/>
<path class="cls-41" d="M552.05,340.49c6.92,6.69,27.87,25.45,33.36,28.09s15.87,4.87,20.72,6.14c1.32.35,2.88.78,4.47,1.18a7.48,7.48,0,0,0-1.46-2.71c-4.76-1.21-10.23-2.73-13.73-4.4-5.49-2.64-26.44-21.4-33.36-28.1-2.3-2.23-3.31-3.74-3.5-4.77-3.33-.8-6.41-1.47-9-1.94C548,334.67,547.78,336.34,552.05,340.49Z"/>
<path class="cls-6" d="M569.57,334.4a34.27,34.27,0,0,0-6-.73,11.91,11.91,0,0,0-4,.52c2.57.47,5.65,1.14,9,1.94A1.47,1.47,0,0,1,569.57,334.4Z"/>
<path class="cls-6" d="M558.55,335.92c3.38.81,7,1.75,10.6,2.74.36.1.73.23,1.11.36a7.05,7.05,0,0,1-1.72-2.89c-3.32-.8-6.4-1.47-9-1.94A1.45,1.45,0,0,0,558.55,335.92Z"/>
<path class="cls-6" d="M606.1,369.31c1.25,1.48,2.28,2.8,3,3.88,2.73.69,5.22,1.28,7,1.74,1.33.35,2.88.78,4.48,1.18a7.57,7.57,0,0,0-1.46-2.72A90.08,90.08,0,0,1,606.1,369.31Z"/>
<path class="cls-6" d="M605.41,369c-5.49-2.64-26.44-21.4-33.36-28.1-.72-.69-1.31-1.32-1.79-1.88-.38-.13-.75-.26-1.11-.36-3.6-1-7.22-1.93-10.6-2.74.19,1,1.2,2.54,3.5,4.77,6.92,6.7,27.87,25.46,33.36,28.1,3.5,1.67,9,3.19,13.73,4.4-.76-1.08-1.79-2.4-3-3.88Z"/>
<path class="cls-42" d="M572.05,340.9c6.92,6.7,27.87,25.46,33.36,28.1l.69.31c-8.15-9.72-25.49-26.59-35.84-30.29C570.74,339.58,571.33,340.21,572.05,340.9Z"/>
<path class="cls-43" d="M638.75,389.77s59.52-175.94,59.92-178.08-1.21-10.41-10.79-14.55-17.81-4.31-25.74-1.25S649.84,202,648.32,206c-2.27,6,17.39,7.17,20.54,10.81s2.38,5.78-.27,12.88-22.65,56.09-24.52,60-19.36,18.57-25.2,23.82S606.46,325,603.37,335.7s-3.51,13.88-3.51,13.88Z"/>
<path class="cls-1" d="M466.82,208.22S586,20.9,589,15.24,586.73,1.59,577.81.33,556,1.31,544,8.93,529.44,19.36,529,21.5s17.5,1.8,20.36,2.22,5,2.25,2,6.13-45,64.92-49.78,69.47-48.77,38.36-52.82,44-43.94,63.29-43.94,63.29,11.55,11,12.74,13.52-3.21,5-3.21,5l69.35,65s5.62,2.83,17.82,7.41c15,5.64,23.45,11.66,27.1,14.83s4.68,6.4,2.7,9.15c-1.15,1.59-9.42,6-9.42,6l46.2,43.11s2.8-.56,7.71,1.71,9.44,7.94,9.44,7.94l52.77,10.09Zm37.61,82.7c-7.54-.66-14.66-6.19-18.6-10.31S447.62,243,443,238.38s2.16-6.51,5.35-6.61,11.09.23,20.82.94,18.3,8.95,24.89,15.31,37.65,40.11,37.65,40.11c2.09,4.41-1.62,4.84-4.3,4.78S512,291.58,504.43,290.92Zm91.7,83.6c-4.85-1.28-15.22-3.52-20.71-6.15S549,347,542.06,340.28s-2.21-6.94,1.49-7,14.79,2.43,25.6,5.41c13.87,3.82,43,35.52,41.4,37.5S601,375.79,596.13,374.52Z"/>
<path class="cls-3" d="M172.2,504.3c-3.75-2.9-11.28-10.45-16.1.84s-12.54,34.43-10.47,45.69,4.5,15.73,9.68,21.44,17.78,21.56,20.52,24.25,8.56,6.3,12.88-4.72,11.43-33.51,10.41-45.5S199.84,525.66,172.2,504.3Z"/>
<path class="cls-44" d="M107.15,464.29c.91-5.74,2.21-8.9,3.57-10.54l-3.7-3.06c-2-1.64-7-4.39-9.46,10.75s-5.53,28.39-2,34.22,11.55,16.57,14,19c2.12,2.1,3.63,1.92,5.33-2.25a162.62,162.62,0,0,1-9.71-13.86C101.62,492.68,104.73,479.42,107.15,464.29Z"/>
<path class="cls-45" d="M115.54,510.38c-.25.74-.49,1.4-.73,2a61.57,61.57,0,0,0,4.25,5.1c2.12,2.1,3.63,1.92,5.33-2.25-2.35-3.05-5.12-6.85-7.34-10.15C116.42,507.48,115.88,509.35,115.54,510.38Z"/>
<path class="cls-45" d="M120.3,456.61c-1.66-1.39-3.06-2.54-3.7-3.06-1.25-1-3.66-2.47-5.88.2,2.55,2.14,5.71,4.81,7.64,6.55A12.16,12.16,0,0,1,120.3,456.61Z"/>
<path class="cls-45" d="M117.05,505.07c-.9-1.35-1.72-2.62-2.37-3.71-3.48-5.83-.37-19.09,2-34.22a39,39,0,0,1,1.63-6.84c-1.93-1.74-5.09-4.41-7.64-6.55-1.36,1.64-2.66,4.8-3.57,10.54-2.42,15.13-5.53,28.39-2.05,34.22a162.62,162.62,0,0,0,9.71,13.86c.24-.59.48-1.25.73-2C115.88,509.35,116.42,507.48,117.05,505.07Z"/>
<path class="cls-46" d="M129.55,464.7c-.92-1.07-5.68-5.11-9.25-8.09a12.16,12.16,0,0,0-1.94,3.69,21.85,21.85,0,0,1,1.61,1.55c5.4,6.28.17,31.4-2.92,43.22,2.22,3.3,5,7.1,7.34,10.15.24-.59.48-1.25.73-2C127.14,507.15,136.06,472.27,129.55,464.7Z"/>
<path class="cls-46" d="M116.73,467.14c-2.42,15.13-5.53,28.39-2,34.22.65,1.09,1.47,2.36,2.37,3.71,3.09-11.82,8.32-36.94,2.92-43.22a21.85,21.85,0,0,0-1.61-1.55A39,39,0,0,0,116.73,467.14Z"/>
<path class="cls-47" d="M148.72,470.4c-1.34-1.56-10.94-9.51-12.95-11.15s-7-4.39-9.45,10.74-5.53,28.39-2,34.22,11.54,16.58,14,19,4,1.83,6.06-4.25S155.23,478,148.72,470.4Z"/>
<path class="cls-37" d="M164.8,556.53c-2.07-11.25,5.65-34.4,10.47-45.69,1.28-3,2.77-4.68,4.32-5.45-4-3.16-9.9-6.78-13.91,2.6-4.82,11.29-12.54,34.43-10.46,45.69s4.49,15.73,9.68,21.44,17.77,21.56,20.52,24.25c1.89,1.86,5.25,4.16,8.57,1.77-4-4.49-14.81-18-19.51-23.17C169.3,572.26,166.87,567.78,164.8,556.53Z"/>
<path class="cls-48" d="M194,601.14c.41.47.76.83,1,1.09,1.9,1.86,5.25,4.15,8.57,1.76-1.41-1.57-3.65-4.25-6.17-7.3A11.65,11.65,0,0,1,194,601.14Z"/>
<path class="cls-48" d="M186.4,510.82a7.6,7.6,0,0,1,2.77-2.58c-2.73-2.14-6.31-4.49-9.58-2.85.82.64,1.56,1.27,2.2,1.76C183.43,508.42,185,509.64,186.4,510.82Z"/>
<path class="cls-48" d="M184.06,580.83c-5.18-5.72-7.6-10.19-9.67-21.45S180,525,184.85,513.69a16.46,16.46,0,0,1,1.55-2.87c-1.44-1.18-3-2.4-4.61-3.67-.64-.49-1.38-1.12-2.2-1.76-1.55.77-3,2.44-4.32,5.45-4.82,11.29-12.54,34.44-10.47,45.69s4.5,15.73,9.68,21.44c4.7,5.18,15.49,18.68,19.51,23.17a11.65,11.65,0,0,0,3.41-4.45C192.73,591.06,187.11,584.19,184.06,580.83Z"/>
<path class="cls-49" d="M203.57,604c.42.47.76.84,1,1.09,1.89,1.86,5.25,4.15,8.57,1.77-1.41-1.58-3.66-4.26-6.18-7.31A11.65,11.65,0,0,1,203.57,604Z"/>
<path class="cls-49" d="M196,513.67a7.6,7.6,0,0,1,2.77-2.58c-2.73-2.14-6.31-4.49-9.58-2.85.82.64,1.57,1.27,2.2,1.76C193,511.27,194.54,512.49,196,513.67Z"/>
<path class="cls-49" d="M186.4,510.82c2.92,2.4,5.44,4.62,7.62,6.71l.42-1a17.17,17.17,0,0,1,1.54-2.87c-1.44-1.18-3-2.4-4.61-3.67-.63-.49-1.38-1.12-2.2-1.76A7.6,7.6,0,0,0,186.4,510.82Z"/>
<path class="cls-49" d="M199.74,590.8c-.5,1.39-1,2.69-1.45,3.85-.29.75-.59,1.43-.89,2,2.52,3,4.76,5.73,6.17,7.3a11.65,11.65,0,0,0,3.41-4.45C204.66,596.74,202.1,593.63,199.74,590.8Z"/>
<path class="cls-49" d="M184,562.23c-2-10.93,5.22-33.1,10.05-44.7-2.18-2.09-4.7-4.31-7.62-6.71a16.46,16.46,0,0,0-1.55,2.87C180,525,172.31,548.13,174.39,559.38s4.49,15.73,9.67,21.45c3.05,3.36,8.67,10.23,13.34,15.86.3-.61.6-1.29.89-2,.46-1.16,1-2.46,1.45-3.85-2.38-2.86-4.56-5.43-6.09-7.12C188.47,578,186,573.49,184,562.23Z"/>
<path class="cls-50" d="M213.16,606.85c.41.46.76.83,1,1.08,1.9,1.86,5.25,4.15,8.57,1.77-1.41-1.58-3.65-4.26-6.17-7.3A11.81,11.81,0,0,1,213.16,606.85Z"/>
<path class="cls-50" d="M196,513.67c2.93,2.4,5.45,4.63,7.63,6.71l.41-1a16.58,16.58,0,0,1,1.55-2.88c-1.44-1.18-3-2.4-4.62-3.67-.63-.49-1.38-1.11-2.2-1.76A7.6,7.6,0,0,0,196,513.67Z"/>
<path class="cls-50" d="M209.33,593.65c-.51,1.4-1,2.69-1.45,3.86-.29.74-.59,1.42-.9,2,2.52,3.05,4.77,5.73,6.18,7.31a11.81,11.81,0,0,0,3.41-4.45C214.24,599.59,211.69,596.49,209.33,593.65Z"/>
<path class="cls-50" d="M201.79,584.88c-.69,2.11-1.38,4.1-2,5.92,2.36,2.83,4.92,5.94,7.24,8.74.31-.61.61-1.29.9-2,.46-1.17.94-2.46,1.45-3.86-2.38-2.85-4.56-5.43-6.1-7.12Q202.48,585.69,201.79,584.88Z"/>
<path class="cls-50" d="M203.61,520.38c-2.18-2.08-4.7-4.31-7.63-6.71a17.17,17.17,0,0,0-1.54,2.87l-.42,1a69.4,69.4,0,0,1,7.47,8.22C202.22,523.8,202.94,522,203.61,520.38Z"/>
<path class="cls-50" d="M193.55,565.09c-1.73-9.43,3.4-27.18,7.94-39.34a69.4,69.4,0,0,0-7.47-8.22c-4.83,11.6-12.07,33.77-10.05,44.7,2.07,11.26,4.5,15.73,9.68,21.45,1.53,1.69,3.71,4.26,6.09,7.12.67-1.82,1.36-3.81,2-5.92C197.59,579.87,195.43,575.24,193.55,565.09Z"/>
<path class="cls-51" d="M203.61,520.38c14.85,14.2,13.84,21.8,14.68,31.63.91,10.72-4.68,29.84-9,41.64,2.36,2.84,4.91,5.94,7.24,8.75.3-.62.6-1.29.89-2,4.33-11,11.44-33.52,10.41-45.5-1-11.27.52-19.61-22.3-38.34A16.58,16.58,0,0,0,204,519.4Z"/>
<path class="cls-51" d="M218.29,552c-.84-9.83.17-17.43-14.68-31.63-.67,1.61-1.39,3.42-2.12,5.37,7,9.3,6.55,15.66,7.22,23.41.77,9.06-3.11,24.14-6.92,35.72q.69.81,1.44,1.65c1.54,1.69,3.72,4.27,6.1,7.12C213.61,581.85,219.2,562.73,218.29,552Z"/>
<path class="cls-51" d="M193.55,565.09c1.88,10.15,4,14.78,8.24,19.79,3.81-11.58,7.69-26.66,6.92-35.72-.67-7.75-.18-14.11-7.22-23.41C197,537.91,191.82,555.66,193.55,565.09Z"/>
<path class="cls-2" d="M154.17,474.8l22.54-9.1s56.64,7.65,58,8.05,2.59,26.06,2.91,27.88,7.24,5.6,10.82.34,8-19.17,2.54-31.72c-5.06-11.61-4.81-16.66-35.49-21.76S91.9,428.1,91.9,428.1Z"/>
<path class="cls-1" d="M453.11,571.91c-1.31-7.46-5.4-16.38-11.45-16.58s-181.25,0-181.25,0L92,428.14l-10.29,55.1s2.87,4.39,3.32,6.13-.52,5-.52,5S114,536.57,114.94,537.8s3.39-.6,6.3-7.12,7-13.68,9.77-11.23,4.05,16.63,3.54,28-2.33,15.38,4.27,23.45,54.56,71.5,56.07,72.91,7.69-6.49,9.2-5.08,22.17,26,22.17,26l58.5-10.87s82.18-55.88,84.31-56.54,61.2-9.4,61.2-9.4l-8.95,36.81s2.12,2.59,3.95,1.85,12-6.72,17-17.12S454.43,579.38,453.11,571.91ZM115.54,510.38c-2,6.07-3.65,6.63-6.06,4.24s-10.49-13.13-14-19-.36-19.09,2-34.22S105,449.05,107,450.69s11.6,9.6,13,11.16C126.47,469.41,117.55,504.3,115.54,510.38Zm73.17,81.42c-4.32,11-10.13,7.42-12.88,4.72S160.49,578,155.31,572.27s-7.6-10.19-9.68-21.44,5.65-34.41,10.47-45.69,12.35-3.74,16.1-.84c27.64,21.36,25.9,30,26.92,42S193,580.78,188.71,591.8Z"/>
</g>
</svg>