<svg xmlns="http://www.w3.org/2000/svg" viewBox="0 0 90 50"><defs><style>.cls-1{fill:#2e2c27;}</style></defs><title>dj-vision-eyecon</title><g id="Layer_2" data-name="Layer 2"><g id="Layer_1-2" data-name="Layer 1"><path class="cls-1" d="M45,0C18,0,0,25,0,25S18,50,45,50,90,25,90,25,72,0,45,0Zm0,31a6,6,0,1,1,6-6A6,6,0,0,1,45,31ZM11.91,25C16.49,20.3,24.25,13.76,34.1,10.7a17.95,17.95,0,0,0-.05,28.56C24.27,36.18,16.5,29.64,11.91,25Zm44,14.32A17.95,17.95,0,0,0,56,10.74C65.72,13.82,73.5,20.36,78.09,25,73.51,29.7,65.75,36.24,55.9,39.3Z"/></g></g></svg>