<svg xmlns="http://www.w3.org/2000/svg" viewBox="0 0 365.88 336.49">
<defs>
<style>
.cls-1,.cls-10,.cls-16,.cls-28,.cls-34,.cls-48,.cls-52,.cls-58,.cls-62{fill:#fff;}
.cls-2{fill:#2e2c27;}
.cls-3{fill:#c9c9c9;}
.cls-4,.cls-9{fill:#ee2b46;}
.cls-5{fill:#f0efef;}
.cls-6,.cls-8{fill:#799ad0;}
.cls-7{fill:#d6d6d6;}
.cls-8,.cls-9{opacity:0.5;}
.cls-10{font-size:14px;}
.cls-10,.cls-16,.cls-28,.cls-34,.cls-48,.cls-52,.cls-58,.cls-62{font-family:CosmicLagerRegular, Cosmic Lager;}
.cls-11{letter-spacing:-0.04em;}
.cls-12{letter-spacing:-0.03em;}
.cls-13{letter-spacing:0.03em;}
.cls-14{letter-spacing:-0.05em;}
.cls-15{letter-spacing:-0.14em;}
.cls-16{font-size:7.1px;}
.cls-17{letter-spacing:0.03em;}
.cls-18{letter-spacing:-0.05em;}
.cls-19{letter-spacing:0em;}
.cls-20{letter-spacing:-0.04em;}
.cls-21{letter-spacing:-0.08em;}
.cls-22{letter-spacing:-0.04em;}
.cls-23{letter-spacing:-0.14em;}
.cls-24{letter-spacing:-0.04em;}
.cls-25{letter-spacing:0.03em;}
.cls-26{letter-spacing:-0.05em;}
.cls-27,.cls-57{font-family:MyriadPro-Regular, Myriad Pro;}
.cls-28{font-size:11.24px;}
.cls-29{letter-spacing:-0.05em;}
.cls-30{letter-spacing:-0.05em;}
.cls-31{letter-spacing:0.03em;}
.cls-32{letter-spacing:0.03em;}
.cls-33{letter-spacing:0em;}
.cls-34{font-size:8.04px;}
.cls-35{letter-spacing:-0.04em;}
.cls-36{letter-spacing:-0.06em;}
.cls-37{letter-spacing:-0.07em;}
.cls-38{letter-spacing:-0.05em;}
.cls-39{letter-spacing:-0.05em;}
.cls-40{letter-spacing:-0.04em;}
.cls-41{letter-spacing:0.03em;}
.cls-42{letter-spacing:-0.03em;}
.cls-43{letter-spacing:0em;}
.cls-44{letter-spacing:-0.05em;}
.cls-45{letter-spacing:-0.06em;}
.cls-46{letter-spacing:-0.07em;}
.cls-47{letter-spacing:-0.04em;}
.cls-48{font-size:6.73px;}
.cls-49{letter-spacing:0.03em;}
.cls-50{letter-spacing:0em;}
.cls-51{letter-spacing:-0.05em;}
.cls-52{font-size:7.22px;}
.cls-53{letter-spacing:0.03em;}
.cls-54{letter-spacing:-0.03em;}
.cls-55{letter-spacing:-0.05em;}
.cls-56{letter-spacing:-0.04em;}
.cls-57{letter-spacing:0em;}
.cls-58{font-size:21.8px;}
.cls-59{letter-spacing:0.03em;}
.cls-60{letter-spacing:-0.04em;}
.cls-61{letter-spacing:-0.06em;}
.cls-62{font-size:10.4px;}
.cls-63{letter-spacing:0.03em;}
.cls-64{letter-spacing:-0.05em;}
</style>
</defs>
<g id="Layer_2" data-name="Layer 2">
<g id="Layer_1-2" data-name="Layer 1">
<polyline class="cls-1" points="57.68 98.16 58.1 101.21 73.09 101.21 73.96 99.06 79.72 96.64 80.87 93.94 81.02 92.54 82.16 92.94 104.65 92.16 118.16 94.35 107.25 77.67 116.39 71.1 141 99 140.28 107.36 115.35 110.53 121.33 132.99 124.01 146.18 132.72 157.34 129.64 159.4 125.65 159.4 120.91 161.47 109.99 164 90.63 170.69 86.71 173.99 86.71 179.55 71.98 175.22 70.75 162.45 57.68 154.21 52.2 130.93 25.21 140.1 4.92 138.93 5.33 129.69 24.48 94.92 35.52 97.76 29.75 110.53 24.59 127.53 33.45 121.52 39.12 119.5 42.42 114.34 51.89 105.82 54.38 98.65 57.68 98.16 58.1 101.21 73.09 101.21 73.09 101.21 73.09 101.21"/>
<polygon class="cls-2" points="127.24 154.68 124.82 152.18 123.24 151.31 119.66 147.87 117.96 146.95 114.16 142.21 112.7 141.43 110.26 134.32 101.29 118.46 107.02 124.26 138.81 157.78 136.55 157.93 132.72 157.34 129.64 159.4 128.02 156.9 127.24 154.68"/>
<polyline class="cls-3" points="115.04 72.05 113.51 68.83 113.64 62.69 114.27 57.22 115.04 55.74 114.27 54.9 115.04 53.41 113.51 51.55 111.82 45.8 109.04 44.97 107.37 42.46 104.58 40.23 103.09 38.84 102.08 38.84 102.08 40.33 104.97 44.13 105.51 45.24 102.08 46.36 100.3 46.82 101.24 48.4 104.97 48.59 106.35 48.4 107.67 50.91 106.9 52.11 104.58 53.41 102.54 56.56 100.3 53.96 100.69 52.48 99.85 50.44 97.25 48.49 95.86 49.61 97.35 52.85 97.35 54.8 98.09 55.74 99.2 58.42 99.3 59.81 99.97 61.55 99.94 62.26 100.99 65.41 101.82 67.5 102.47 68.36 104.41 70.27 106.73 74.19 110.54 79.4 111.25 80.17 113.22 80.53 115.51 79.58 118.07 75.74 118.64 75.27 115.04 72.05"/>
<polygon class="cls-2" points="143.37 109.19 135 111.5 127.68 112.41 119.34 112.86 117.7 113.87 104.65 92.16 113.65 92.73 118.16 94.35 121.63 98.81 133.67 109.19 143.37 109.19"/>
<path class="cls-2" d="M95.59,200.43l-9.35,3.89-6.4-16.57L73.75,200l-10.92-.76-3,1.78L57,199.75l-7.36,3.3-12.19-2.29L25.51,196l-2.29-5.17s2.29-7.62,3.3-10.41S31.35,170,31.35,170l5.58-10.16,6.84-12.49-.49-3.5,3.56-11.43L43.28,118h3l-2.92-1.67L47,111.1,51,105l2.51-6.84L56.27,97l22.84-5.12,3,1.08,9.38-2.07,11.61-1.29L105.57,93l11.78,20,5.32,11.78,6.77,17.58,19,14.07L146,159.07l-4.56-.74-4.91-.4-3.82-.59-.59-6-16.25-15.75-10.92-9-.64-2.91L93.8,110.87l-7.56-9.67-6-4-1.46-3.71-5.7.69L65.44,96.3l-7.76,1.86-1.18.27-2,1.4,1.79,6.78-2.26,2.88,1.17,6.86-1.4,1.32,1.78,16.73,3.65,16,6.38,6,8.76,3.46.36,13.31,9.85,4.38,2.91,1.64Z"/>
<polygon class="cls-2" points="50.51 105.82 37.88 115.08 36.12 119.12 37.38 121.39 45.51 137.22 46.84 132.46 46.33 117.99 50.51 105.82"/>
<polygon class="cls-1" points="232.24 218.19 237.17 222.58 237.17 222.58 224.78 230.97 223.14 230.01 221.87 224.72 224.67 219.27 232.24 218.19"/>
<polygon class="cls-4" points="116.54 308.14 116.54 310.59 115.92 313.52 114.49 320.05 114.1 333.31 120.38 336.49 127.26 336.49 131.61 333.98 131.61 331.45 130.09 321.58 129.55 315.19 129.7 312.87 130.45 308.83 123.18 309.51 116.54 308.14"/>
<path class="cls-4" d="M221.87,232l3.11,5.08a33.42,33.42,0,0,0,1.88,4.93l3.08,4.85a76.44,76.44,0,0,0,13.19-6.13c3.38-2.1,14.87-8.32,17.23-9.77a55,55,0,0,0,11.39-9.46l.42-1.12-2.11-2.14a7.87,7.87,0,0,0-4.34,0c-2.27.69-6.61,2.06-6.61,2.06l-18.63,1.08-4.1-1.85.79,3-5.49.62Z"/>
<path class="cls-2" d="M131.94,197.83a58.72,58.72,0,0,0,7.22-1.67c3.24-1,17-6.68,21.22-8.7s12.36-6.43,13.54-7,4.56-2.36,4.56-2.36l2.2.59,2.49-2,2.11-.23.85,1.81,1.88,9.08,4.88,3.28,2.94,4.71s6.92,10.34,10,14.58,9.27,12.63,9.27,12.63l.7,7.94,8.35-.5-2.29-5.23,2.8-5.45,6-.86,1.55-.22,1,.85,4.81-2.41L231,209l-2.64-1.47-5.3-14.13L207.6,169l-1.47-4.12-7.5-11-4.86-2.5a47.48,47.48,0,0,1-4.83.52c-1.47,0-15.85.36-15.85.36L151,155.31l-4,1.15-1.61,1.91h-1.47l-3.09-.73-4.27.29-3.82-.59-2,1.31L129,156.49l-2.88.45-5,2.46-7.39,1.06-24.86,7.39-5.17,6,1.85,6.88.33,3.15,1.71,1.24s-.29,3.23-.29,4.41a44.88,44.88,0,0,0,.59,4.56l2.35,3.68,1.62.73,3.53,1.62,1.18,1.47,1.32.74.88,2.06,1.47,1.47.74,1.76,2.5,3.39,8.09,16.33-1,2.35V234l2.21,2.64-2.21.89L109.33,243s-.14,4.85-.14,7.21a83.78,83.78,0,0,1-1,8.53l1,18.53s2.35,14,2.35,16-.43,11.53-.43,11.53l6.32,2.89,7.2,1,2.8-1.18,3.68-2.5s-1.33-14.86-1.18-17.07,1.62-14.71,1.62-14.71l.59-10.88-.59-4,1.32-6.32v-6.47l2.5-4.12v-7.21l.3-2.06L138,230l-.88-10.74-3-13.5Z"/>
<polygon class="cls-2" points="117.21 70.33 125.67 79.94 142.09 94.72 146.02 104.02 143.37 109.19 133.67 109.19 121.63 98.81 106.87 79.88 117.21 70.33"/>
<path class="cls-5" d="M54.5,88.1l3,8.61.7,5.09,5.55,5.56,8-2.14,3.69-1.67.32-5.12,4-1.79L80.87,94l.43-3.86-.25-10-1.62-6-.82-5-2-7.17L72.79,57s-8.27-2.33-11.51-2.2S47.47,63,47.47,63l-1.81,6.71,2.18,7.19L49,79.18l-1.24.41-.49,1.5L52,87.68Z"/>
<polygon class="cls-2" points="49.04 79.18 51.76 79.96 50.48 74.19 49.47 68.74 48.22 68.11 49.99 64.2 51.2 61.91 57.59 57.94 66.47 58.8 71.24 58.93 74.47 58.43 75.9 57.94 74.66 57.13 75.9 55.95 71.18 55.64 72.17 54.09 66.4 54.09 65.97 52.97 61.25 53.78 58.15 54.03 57.72 53.28 51.51 57.94 50.15 57.13 49.03 60.21 47.28 63.78 45.93 66.06 45.06 66.26 45.06 67.06 44.44 68.11 45.18 69.29 45.93 71.96 49.04 79.18"/>
<path class="cls-2" d="M51.09,78.29A9.73,9.73,0,0,1,53.57,76a6.83,6.83,0,0,1,2.51-.76c.65,0,3.41.42,3.41.42l2.33-.49,9,.4A27.32,27.32,0,0,1,72.27,72c.41-.53,1.52,0,1.52,0l1.51,1.51L77.6,76l4.73.09L84,75.82l-1-7.51-8.2-.87-1.75.06-2-.32-10.91-.4-5,4.67L51.7,75.54l-1.84,2.75Z"/>
<polygon class="cls-6" points="74.84 69.26 81.69 69.85 82.26 74.55 77.51 74.53 74.84 70.83 74.84 69.26"/>
<polygon class="cls-4" points="63.02 68.8 71.45 69.12 71.45 70.99 69.78 74.04 63.02 73.7 63.02 68.8"/>
<polygon class="cls-1" points="76.86 105.4 79.99 97.59 79.72 96.64 73.96 99.06 73.09 101.21 58.1 101.21 57.68 98.16 55.11 100.04 56.93 106.92 65.11 109.5 64.12 103.99 68.54 102.48 73.55 101.32 75.75 101.84 76.86 105.4"/>
<polygon class="cls-6" points="64.48 105.98 67.66 106.65 70.57 106.65 71.22 108.19 71.22 109.33 71.69 116 68.54 126.36 62.6 137.86 60.71 145.95 62.1 149.49 64.12 148.85 65.66 161.47 74.99 154.48 76.45 135.97 79.67 116.51 79.67 109.3 74.74 106.01 73.72 104.12 75.75 101.84 73.55 101.32 68.54 102.48 64.12 103.99 64.48 105.98"/>
<polygon class="cls-7" points="31.77 74.25 30.76 74.82 30.76 77.09 30.3 82.14 29.2 85.72 28.1 88.75 24.98 93.61 24.06 96.04 22.32 99.4 28.74 101.97 33.19 100.25 35.26 93.98 36.73 92.79 38.2 91.23 39.57 91.23 44.16 89.58 46.84 87.47 49.21 86 52.97 84.99 55.91 84.89 55.91 83.79 54.99 82.78 51.48 81.63 49.3 82.33 45.63 82.97 42.6 77.92 42.6 76.45 42.24 73.61 43.31 69.3 45.54 65.44 47.28 63.78 49.03 60.21 49.03 59.01 47.91 58.28 45.63 61.58 43.98 62.87 42.24 65.44 39.85 68.01 40.4 65.99 41.13 65.07 42.24 61.77 44.26 58.92 44.9 55.89 43.89 54.97 42.97 55.89 41.5 54.61 40.67 56.81 39.48 59.1 38.2 61 37 63.78 35.26 65.99 33.88 70.33 31.77 74.25"/>
<polygon class="cls-1" points="35.52 97.76 24.48 94.92 23.76 96.24 34.91 99.09 35.52 97.76"/>
<polygon class="cls-1" points="107.25 77.67 115.7 71.73 108.01 78.83 107.25 77.67"/>
<polygon class="cls-2" points="22.98 96.04 4.22 127.89 0 139.48 4.36 145.37 22.77 144.94 44.85 138.85 46.84 132.46 36.12 119.12 32.42 120.59 27.11 124.56 32.55 111 39.12 100.17 22.98 96.04"/>
<polygon class="cls-8" points="74.84 69.26 81.69 69.85 365.88 82.85 365.88 183.1 242.02 137.09 77.51 74.53 74.84 70.83 74.84 69.26"/>
<polygon class="cls-9" points="63.02 68.8 365.88 0 365.88 82.85 63.02 73.7 63.02 68.8"/>
<polygon class="cls-2" points="365.88 9.59 242.02 50.77 242.02 46 365.88 0 365.88 9.59"/>
<polygon class="cls-2" points="365.88 82.85 242.02 87.22 242.02 53.54 365.88 15.16 365.88 82.85"/>
<polygon class="cls-2" points="279.74 95.17 242.02 94.32 242.02 90.35 279.74 89.98 279.74 95.17"/>
<polygon class="cls-2" points="365.88 124.71 286.75 114.06 286.75 89.92 365.88 89.14 365.88 124.71"/>
<polygon class="cls-2" points="279.74 104.16 242.02 101.19 242.02 97.22 279.74 98.97 279.74 104.16"/>
<polygon class="cls-2" points="279.74 113.12 242.02 108.05 242.02 104.08 279.74 107.93 279.74 113.12"/>
<polygon class="cls-2" points="365.88 163.84 242.02 127.52 242.02 111.16 365.88 130.97 365.88 163.84"/>
<polygon class="cls-2" points="365.88 183.1 242.02 137.09 242.02 130.47 365.88 169.79 365.88 183.1"/>
<text class="cls-10" transform="matrix(0.96, -0.28, 0.28, 0.96, 177.14, 62.28)">&lt;/&gt;</text>
<text class="cls-10" transform="matrix(0.98, 0.2, -0.2, 0.98, 296.35, 31.36)">&lt;<tspan class="cls-11" x="6.26" y="0">t</tspan>
<tspan class="cls-12" x="11.94" y="0">e</tspan>
<tspan class="cls-13" x="17.81" y="0">m</tspan>
<tspan x="26.77" y="0">p</tspan>
<tspan class="cls-14" x="33.03" y="0">l</tspan>
<tspan class="cls-15" x="38.6" y="0">a</tspan>
<tspan class="cls-11" x="42.92" y="0">t</tspan>
<tspan x="48.61" y="0">e&gt;</tspan>
</text>
<text class="cls-16" transform="matrix(0.99, 0.1, -0.1, 0.99, 218.2, 68.45)">
<tspan class="cls-17">im</tspan>
<tspan x="6.3" y="0">p</tspan>
<tspan class="cls-17" x="9.48" y="0">o</tspan>
<tspan class="cls-18" x="12.88" y="0">r</tspan>
<tspan class="cls-19" x="15.72" y="0">t </tspan>
<tspan class="cls-20" x="20.33" y="0">N</tspan>
<tspan class="cls-21" x="23.23" y="0">a</tspan>
<tspan class="cls-22" x="25.85" y="0">v</tspan>
<tspan class="cls-17" x="28.69" y="0">i</tspan>
<tspan class="cls-20" x="30.45" y="0">g</tspan>
<tspan class="cls-23" x="33.34" y="0">a</tspan>
<tspan class="cls-24" x="35.54" y="0">t</tspan>
<tspan class="cls-25" x="38.42" y="0">io</tspan>
<tspan x="43.58" y="0">n </tspan>
<tspan class="cls-26" x="48.19" y="0">f</tspan>
<tspan x="50.98" y="0">r</tspan>
<tspan class="cls-17" x="54.15" y="0">o</tspan>
<tspan x="57.55" y="0">m &apos;</tspan>
<tspan class="cls-27" x="64.84" y="0">~</tspan>
<tspan x="69.07" y="0">/</tspan>
</text>
<text class="cls-28" transform="matrix(0.91, -0.41, 0.41, 0.91, 185.2, 111.2)">
<tspan class="cls-29">l</tspan>
<tspan class="cls-30" x="4.48" y="0">a</tspan>
<tspan class="cls-31" x="8.97" y="0">n</tspan>
<tspan x="14.36" y="0">g=&quot;</tspan>
<tspan class="cls-32" x="28.79" y="0">s</tspan>
<tspan class="cls-33" x="34.18" y="0">c</tspan>
<tspan class="cls-32" x="39.21" y="0">s</tspan>
<tspan x="44.59" y="0">s&quot;</tspan>
</text>
<text class="cls-34" transform="translate(124.03 89.16) rotate(-7.5)">@<tspan class="cls-35" x="5.93" y="0">k</tspan>
<tspan class="cls-36" x="9.18" y="0">e</tspan>
<tspan class="cls-37" x="12.29" y="0">y</tspan>
<tspan class="cls-38" x="15.31" y="0">f</tspan>
<tspan class="cls-39" x="18.47" y="0">r</tspan>
<tspan class="cls-40" x="21.68" y="0">a</tspan>
<tspan class="cls-41" x="24.9" y="0">m</tspan>
<tspan class="cls-42" x="30.04" y="0">e</tspan>
<tspan class="cls-43" x="33.41" y="0">s</tspan>
</text>
<text class="cls-10" transform="matrix(0.75, 0.66, -0.66, 0.75, 272.16, 127.48)">&lt;/<tspan class="cls-44" x="12.43" y="0">s</tspan>
<tspan class="cls-45" x="18.05" y="0">t</tspan>
<tspan class="cls-46" x="23.46" y="0">y</tspan>
<tspan class="cls-47" x="28.71" y="0">l</tspan>
<tspan x="34.41" y="0">e&gt;</tspan>
</text>
<text class="cls-48" transform="translate(122.96 70.11) rotate(-20.68)">&lt;<tspan class="cls-49" x="3.01" y="0">s</tspan>
<tspan class="cls-50" x="6.24" y="0">cr</tspan>
<tspan class="cls-49" x="12.26" y="0">i</tspan>
<tspan class="cls-51" x="13.93" y="0">p</tspan>
<tspan x="16.63" y="0">t&gt;</tspan>
</text>
<text class="cls-52" transform="translate(218.14 119.46) rotate(6.16)">c<tspan class="cls-53" x="3.23" y="0">om</tspan>
<tspan x="11.31" y="0">p</tspan>
<tspan class="cls-53" x="14.54" y="0">on</tspan>
<tspan class="cls-54" x="21.46" y="0">e</tspan>
<tspan class="cls-55" x="24.49" y="0">n</tspan>
<tspan class="cls-56" x="27.38" y="0">t</tspan>
<tspan x="30.32" y="0">s: </tspan>
<tspan class="cls-57" x="36.57" y="0">{</tspan>
</text>
<text class="cls-58" transform="matrix(0.21, -0.98, 0.98, 0.21, 340.35, 140.51)">&lt;<tspan class="cls-59" x="9.75" y="0">n</tspan>
<tspan class="cls-60" x="20.19" y="0">u</tspan>
<tspan class="cls-61" x="29.11" y="0">x</tspan>
<tspan x="37.37" y="0">t /&gt;</tspan>
</text>
<text class="cls-62" transform="translate(273.24 60.77) rotate(-8.25)">
<tspan class="cls-63">n</tspan>
<tspan x="4.98" y="0">pm r</tspan>
<tspan class="cls-63" x="22.7" y="0">u</tspan>
<tspan x="27.68" y="0">n </tspan>
<tspan class="cls-63" x="34.43" y="0">d</tspan>
<tspan class="cls-64" x="39.41" y="0">e</tspan>
<tspan x="43.55" y="0">v</tspan>
</text>
</g>
</g>
</svg>