<svg xmlns="http://www.w3.org/2000/svg" viewBox="0 0 226.55 82.19"><defs><style>.cls-1{fill:#6f9ff8;}.cls-2{fill:#f72444;}</style></defs><title>derek-johnston-design-logo</title><g id="Layer_2" data-name="Layer 2"><g id="Layer_2-2" data-name="Layer 2"><g id="Layer_2_copy" data-name="Layer 2 copy"><path class="cls-1" d="M226.55,20.76a3.58,3.58,0,0,0-1.15-1.41c-.33-.13-.91.22-2,.95l-.87.48c-1.4.77-4.08,2.46-4.08,2.46s-1.81,1.18-6,1.58c-4.52.43-17.2-.35-26-1.5a343.57,343.57,0,0,0-37.42-3.63c-.4-3.53-.71-6.22-.77-6.52-.17-.82-1.18-1-1.74-.94a1.48,1.48,0,0,0-.91.4s0,1,.24,2.72c.05.47.23,2.08.47,4.27h-.12c-17.75-.38-36.17,3.25-37.13,3.22s-.78-1.27.1-2.61a36.4,36.4,0,0,1,3.16-3.74c-1.66.35-5.34,3-7.09,5.66s-1,3.58,3.94,3.21,14.07-2.28,20.69-2.72,0,0,8-.4c2.77-.14,5.69-.22,8.71-.22.65,5.9,1.52,13.9,1.81,16.65a105.19,105.19,0,0,1,.62,11.84c-.18,0-2.23-.18-2.23-.18A31.36,31.36,0,0,1,145.35,46c-.65-2.41-1.29-5.31-1.88-8.08s-1.05-6.79-1.05-6.79a2.1,2.1,0,0,0-1.3-.21,1.4,1.4,0,0,0-1,.58s-.13,6.54-.43,10.39a33.14,33.14,0,0,1-1,6.83c-.37-.06-.35-.85-.5-1.42s-.37-2-.72-4.68c-.39-2.91-.85-5.36-.85-5.36a1.88,1.88,0,0,0-1.17-.31c-.85,0-1.11.92-1.23,1.27s-.61,4.95-.61,4.95a28.56,28.56,0,0,0-.17-3.5c-.08-.48-.5-.69-1.21-.8a1.86,1.86,0,0,0-1.36.52s-.27.93-.55,2.28-.9,5.33-.9,5.33l-.48-2c-.11-.45-.45-1.64-.72-2.74-.45-1.76-.68-2.23-1.09-2.36a3.31,3.31,0,0,0-1.83,0c-.5.1-1,1.59-1,1.59l0-.12-.11-2a36,36,0,0,0,.17-5.26c-.16-2-.62-4.9-.62-4.9s0-.8-.09-1.72c-.18-2.28-.67-2.66-.67-2.66a3.34,3.34,0,0,0-1.44-.11,1,1,0,0,0-.71.62l.56,5.26s.17,1.61.36,3.89a48.86,48.86,0,0,1,.27,5.94,6.45,6.45,0,0,1-1.36,2.09h0c-.44-.75-1.36-1.35-3.13-1.45-4.22-.25-5.23,1.68-5.23,1.68s-.35.16-.9.37l-9.09,2.73s-6.8-19.89-8.89-27C91,11,90.11,7.64,90.23,7.85A11.24,11.24,0,0,0,93,11.11a7,7,0,0,0,4.26,1.3s-1-.79-2.39-2-4.28-5.71-5.16-7.2-1.41-2.66-2-3A7.35,7.35,0,0,0,85.13.07c-.85.18-.68.53-.18,2S92.53,25.8,95.22,33.64s4.46,13,4.46,13S92.6,49,90.19,50.12A10.84,10.84,0,0,0,87,52.23c-4.16-1-8.18-1.76-11.63-2.29-3.68-.56-7.86-1-7.86-1l1.63-3.39a13.7,13.7,0,0,1,1-1.79s5.44-7.4,7.5-11.21,3.31-6.28,3.11-7.29-1.73-.64-2.59-.53-4.16,4-6.33,8.47-4.59,9.73-4.59,9.73L62.6,46.2S64.31,38.53,65.87,31c1.29-6.23,1.59-8.5,1.41-8.9s-1.88-.42-2.39-.25S62.78,28,61.31,34.73c-1.19,5.39-2.14,10.89-2.48,13.79-.53,0-1.24.17-1.24.17s.65-4.95,1.71-9.6c1-4.34,1.44-6,1.3-7.8,0-.48-.32-1.72-1.34-1.55s-2.16,1.36-2.64,3.59-.75,5.48-.93,6.66-.36,2-.69,3.54A16,16,0,0,1,54.37,46s.39-5.53.58-7.45.37-3.1-.11-3.17-1.79-.17-2.23.25S51,43.26,50,47.24a45,45,0,0,1-1.91,6.63c-.33.55-.77-.49-.77-.49S49.47,45.45,50.14,42s.36-4.57-.2-4.9a2.6,2.6,0,0,0-2.72.29c-.84.72-1.77,3.39-2,7.24,0,.23,0,.45,0,.68a13.53,13.53,0,0,0-1.59-.86c-3-1.44-5.25-2.18-13.38-4.56A156.69,156.69,0,0,0,13.91,36c-1.9-.3-3.54-.68-3.54-.68a16.12,16.12,0,0,0-5.46-3.18c-2-.67-2.72-.43-3.54,0S-1,34,.89,34.41c1.71.38,5.37,1.42,6.4,2.6a77.46,77.46,0,0,0,7.8,7.57c2.58,2.11,11.36,8.13,11.36,8.13a59,59,0,0,0-1.77,6.53c-.52,2.48-.07,4.46,4.26,2.26,6-3,11.56-6.92,15.4-11.17.25-.29.48-.56.68-.81,0,1.4,0,2.29,0,2.29a15.09,15.09,0,0,1-.46,2.12c-.3,1-1.16,4.2-2.29,5.23-.46.41,2.33-.11,2.93-.87s.9-1.07.9-1.07.29,1.26,1.63.5a7.41,7.41,0,0,0,2.87-3.56,7.94,7.94,0,0,0,.48-1.5s0,.49.17,1.24.07,1.11.43,1.16A10.65,10.65,0,0,0,54,54.57c.26-.08.24.53.29,1.26,0,.36.06,2.69.95,2.47A7,7,0,0,0,57,57.61a2.33,2.33,0,0,0,.86-.83c.19-.46.06.37.06.37s0,2.43.09,3.3,0,1.7,1.07,1.63,3.11.38,5.09-4.42a51.85,51.85,0,0,0,2.38-6.55c1.68-.14,13.71,2.13,17.58,3l1.81.44c.07,1,.83,2.55,2.86,4.68,2.32,2.43,7.51,7.64,11,11.37s6.52,6.61,8,8,3.26,3.29,3.65,3.13A3.47,3.47,0,0,0,113,80.32c.25-.63,1.75-.72-1.24-9.46C109,62.67,103,48,103,48s3.14-1.12,6.27-2.16a10.94,10.94,0,0,0-1.32,1.63,3.66,3.66,0,0,0,1.25,5.16c1.93.91,4.68.38,7.37-1.66a12.13,12.13,0,0,0,4-5.14,5.32,5.32,0,0,0,.31-1.17,7.67,7.67,0,0,0,1.4-1.69s.13.69.42,3.84a44.68,44.68,0,0,0,.67,5,4.05,4.05,0,0,0,1.32.09c.88-.16,1-.45,1.13-2.13.24-2.71.31-5.36.31-5.36l.13.1h0l.13.12c.28.22,1.32,5.34,1.62,5.91.13.27.52.51,1.33.39s1.29-.46,1.81-1.78a14.35,14.35,0,0,0,.62-3.54s.07.74.28,2.05.44,3.09.85,3.11c1.63.08,1.7-.18,2-1.2.25-.82.58-2.89.58-2.89s.1.53.57,2.53a14.3,14.3,0,0,0,1.13,3.28,5.76,5.76,0,0,0,2.17,0c.45-.11,1.08-1.41,1.08-1.41a15,15,0,0,1,2.77.93c1.48.66,3.47,1.52,3.88,1.22a4.59,4.59,0,0,0,.88-1.32,5.82,5.82,0,0,0,1.12.24,11.84,11.84,0,0,0,1.88-1A8.11,8.11,0,0,0,151,50c0-.79-.27-2.84-.27-2.84s.36,1.15,1.15,5c.07.32.14.62.2.9l0,0a15.86,15.86,0,0,0,.53,1.82,5.48,5.48,0,0,0,.23.56c.72,1.6,1.52,1.73,2.46,1.6a5.87,5.87,0,0,0,3.38-2.09,22.06,22.06,0,0,0,1.53-2.55,4.68,4.68,0,0,0,1.94-.06,8.9,8.9,0,0,0,5.11-2.36A11.91,11.91,0,0,0,169.8,45a29.94,29.94,0,0,1,4.14-1.26c2.47-.58,3.67-1.15,3.83-.91s-2.6,5.54-3.21,8.75a19.43,19.43,0,0,0,.05,6.56,5.62,5.62,0,0,0,1.66.07c.44-.1.9-.33,1.77-1.29s.7-2.72,1-4.57a59.21,59.21,0,0,1,3.2-10.68c2-5.38,4.83-6.76,5.23-6.53s.58,1.6.68,4.4S188,53.11,188,59.92s-1.36,10.49-1.26,13.38,1.25,2.27,2.29,1.86,1.61-.62,1.63-1,.19-2.14.23-4.22a28.27,28.27,0,0,1,.74-4.21A54.13,54.13,0,0,1,196,54a74.6,74.6,0,0,1,11.46-16.9c8.31-9.08,15.05-13.14,18-15.46.65-.44,1-.71,1-.71l0-.05ZM42.18,48.64a38.83,38.83,0,0,1-7.55,6.94c-4.26,3.09-6.05,4.39-6.55,3.7s-.59-3.13-.31-4.18.13-1.56.51-1.62,1.72,1.37,3.23,1.85a4,4,0,0,0,1.79-.57,2.87,2.87,0,0,0,.94-1.31,14.11,14.11,0,0,1-4.61-3.16c-.64-.83,2.64-7.16,2.3-6.81A28.65,28.65,0,0,0,28,48.94c-.45-.43-1.07-1-1.47-1.45-2.79-3.12-3.68-4.36-5.43-4.88s-2.63,1.29-2.63,1.29-2.29-2.43-4-3.92S12,37.63,12,37.63c2.64.31,7.2,1.52,14.85,3.7a114,114,0,0,1,14.63,5.12C43.13,47.21,42.75,47.89,42.18,48.64Zm15.75,4.73c-.43,1.15-.75,2.44-1,2.16s.13-3.38.33-5.17l1.33.09a20.06,20.06,0,0,1-.71,2.92Zm5,1.64c-.68,2-1,3-1.46,3.05s-.25-2.72-.11-4.63a13.76,13.76,0,0,1,.43-2.73l2.53.16S63.58,53.05,62.9,55Zm2.22-6.33-2.41-.14A18.09,18.09,0,0,1,66,46.38Zm42.29,19.48c2.82,7.71,1.77,7.08,1.36,6.74s-2.48-2.25-7-6.69c-4-3.94-10.51-10.6-11.81-12.58,4.4,1.26,7.06,2.28,7.62,2.11.77-.25,2.3-1.46,2.25-2S96,54.43,90.8,53.15a17.42,17.42,0,0,1,3.44-1.93,58.54,58.54,0,0,1,6-2.49C104.33,59.69,104.59,60.45,107.41,68.16Zm10.16-21.31c-.29.66-2.49,4.45-5.3,4.61a2.7,2.7,0,0,1-2.34-1.88,3,3,0,0,1,.49-2.52,6.9,6.9,0,0,1,3.27-2.37,11.23,11.23,0,0,0,1.69.49l.41.09a8.31,8.31,0,0,0,1,.15,8.11,8.11,0,0,0,1.3.08c0,.1-.26.74-.53,1.35Zm26.48,2.79a29.38,29.38,0,0,0-3.13-.62s.12-.77.35-2.56a59.59,59.59,0,0,0,.25-6.16s.71,2.87,1.4,5.33,1.43,3.86,1.12,4Zm14.36-.3c-.14.29-.63-.7-.82-1.86-.28-1.83.23-2.46.23-2.46s.86,1.51,2,1.43c0,0-.26.6-1.37,2.89Zm2.4-6.3c.38-.38,1.65-1.38,1.65-1.38L161,44.12s-.93-.31-.16-1.08Zm4.94,4.06a5.38,5.38,0,0,1-2.81,3.33,7.3,7.3,0,0,1-2.22.4s1.44-4.31,2.12-4.3a11.84,11.84,0,0,0,3.36-1A13.89,13.89,0,0,1,165.75,47.1ZM163.85,44c-.18-.22.77-1.61,1.27-2.64a1.36,1.36,0,0,1,.77.89,12.91,12.91,0,0,0,.36,1.36s-2.23.62-2.41.39Zm38.25-4.91A62,62,0,0,0,191,59.19s.28-19.46.1-22.74-1.59-3.61-2.79-3.6a7.26,7.26,0,0,0-4.63,2.27,26.19,26.19,0,0,0-3.56,5.31H179a3.11,3.11,0,0,0-1,.25.79.79,0,0,1-.56.48c-.48.17-7.83,1.91-7.83,1.91a5,5,0,0,0-2.59-3.5l.16-.33s-.57-1.36-5-.12-5.81,2.53-6.78,4.54a6.11,6.11,0,0,0,0,4.64,10.62,10.62,0,0,0,2.47,3.1,25.73,25.73,0,0,1-1.3,2.82c-.24.43-.47.57-.68.52a2.24,2.24,0,0,1-.68-.87c-1.56-3-3.09-12-3.79-16.35C150.85,35.08,150,28,149.36,22c4.9.06,10,.32,15.06.82,9.27.92,17.18,1.89,24.17,2.83s18.2,2,21.45,1.65a28.33,28.33,0,0,0,5.39-1.1S210.06,29.74,202.1,39.11Z"/></g><path class="cls-2" d="M45.31,69.32H50l.7.71V81.47l-.72.72H45.31Zm3.94,11.43v-10H46.74v10Z"/><path class="cls-2" d="M72.19,69.32h4.65v1.43H73.62V75h2.47v1.42H73.62v4.38h3.22v1.42H72.19Z"/><path class="cls-2" d="M98.36,81.49v-2h1.43v1.29h2.51V76.41l-3.23,0-.71-.72V70l.73-.71H103l.7.71v2H102.3V70.75H99.79V75L103,75l.7.72v5.78l-.7.7H99.09Z"/><path class="cls-2" d="M125.6,69.32H127V82.19H125.6Z"/><path class="cls-2" d="M149,81.49V70l.72-.71h3.93l.7.71v2.43h-1.42V70.75H150.4v10h2.51v-4h-1.26V75.36h2.68v6.13l-.7.7H149.7Z"/><path class="cls-2" d="M177.45,74.16v8H176V69.32h1.42L180,77.49V69.32h1.43V82.19H180Z"/></g></g></svg>